<?xml version="1.0" encoding="utf-8" standalone="no"?>
<!DOCTYPE svg PUBLIC "-//W3C//DTD SVG 1.1//EN"
  "http://www.w3.org/Graphics/SVG/1.1/DTD/svg11.dtd">
<!-- Created with matplotlib (https://matplotlib.org/) -->
<svg height="360pt" version="1.1" viewBox="0 0 515.52 360" width="515.52pt" xmlns="http://www.w3.org/2000/svg" xmlns:xlink="http://www.w3.org/1999/xlink">
 <metadata>
  <rdf:RDF xmlns:cc="http://creativecommons.org/ns#" xmlns:dc="http://purl.org/dc/elements/1.1/" xmlns:rdf="http://www.w3.org/1999/02/22-rdf-syntax-ns#">
   <cc:Work>
    <dc:type rdf:resource="http://purl.org/dc/dcmitype/StillImage"/>
    <dc:date>2020-11-01T22:11:21.670156</dc:date>
    <dc:format>image/svg+xml</dc:format>
    <dc:creator>
     <cc:Agent>
      <dc:title>Matplotlib v3.3.1, https://matplotlib.org/</dc:title>
     </cc:Agent>
    </dc:creator>
   </cc:Work>
  </rdf:RDF>
 </metadata>
 <defs>
  <style type="text/css">*{stroke-linecap:butt;stroke-linejoin:round;}</style>
 </defs>
 <g id="figure_1">
  <g id="patch_1">
   <path d="M 0 360 
L 515.52 360 
L 515.52 0 
L 0 0 
z
" style="fill:#ffffff;"/>
  </g>
  <g id="axes_1">
   <g id="patch_2">
    <path d="M 64.44 320.4 
L 463.968 320.4 
L 463.968 43.2 
L 64.44 43.2 
z
" style="fill:#ffffff;"/>
   </g>
   <g id="matplotlib.axis_1">
    <g id="xtick_1">
     <g id="line2d_1">
      <defs>
       <path d="M 0 0 
L 0 3.5 
" id="m0ab2f396db" style="stroke:#000000;stroke-width:0.8;"/>
      </defs>
      <g>
       <use style="stroke:#000000;stroke-width:0.8;" x="80.949756" xlink:href="#m0ab2f396db" y="320.4"/>
      </g>
     </g>
     <g id="text_1">
      <!-- 0 -->
      <g transform="translate(77.768506 334.998438)scale(0.1 -0.1)">
       <defs>
        <path d="M 31.78125 66.40625 
Q 24.171875 66.40625 20.328125 58.90625 
Q 16.5 51.421875 16.5 36.375 
Q 16.5 21.390625 20.328125 13.890625 
Q 24.171875 6.390625 31.78125 6.390625 
Q 39.453125 6.390625 43.28125 13.890625 
Q 47.125 21.390625 47.125 36.375 
Q 47.125 51.421875 43.28125 58.90625 
Q 39.453125 66.40625 31.78125 66.40625 
z
M 31.78125 74.21875 
Q 44.046875 74.21875 50.515625 64.515625 
Q 56.984375 54.828125 56.984375 36.375 
Q 56.984375 17.96875 50.515625 8.265625 
Q 44.046875 -1.421875 31.78125 -1.421875 
Q 19.53125 -1.421875 13.0625 8.265625 
Q 6.59375 17.96875 6.59375 36.375 
Q 6.59375 54.828125 13.0625 64.515625 
Q 19.53125 74.21875 31.78125 74.21875 
z
" id="DejaVuSans-48"/>
       </defs>
       <use xlink:href="#DejaVuSans-48"/>
      </g>
     </g>
    </g>
    <g id="xtick_2">
     <g id="line2d_2">
      <g>
       <use style="stroke:#000000;stroke-width:0.8;" x="154.002883" xlink:href="#m0ab2f396db" y="320.4"/>
      </g>
     </g>
     <g id="text_2">
      <!-- 2 -->
      <g transform="translate(150.821633 334.998438)scale(0.1 -0.1)">
       <defs>
        <path d="M 19.1875 8.296875 
L 53.609375 8.296875 
L 53.609375 0 
L 7.328125 0 
L 7.328125 8.296875 
Q 12.9375 14.109375 22.625 23.890625 
Q 32.328125 33.6875 34.8125 36.53125 
Q 39.546875 41.84375 41.421875 45.53125 
Q 43.3125 49.21875 43.3125 52.78125 
Q 43.3125 58.59375 39.234375 62.25 
Q 35.15625 65.921875 28.609375 65.921875 
Q 23.96875 65.921875 18.8125 64.3125 
Q 13.671875 62.703125 7.8125 59.421875 
L 7.8125 69.390625 
Q 13.765625 71.78125 18.9375 73 
Q 24.125 74.21875 28.421875 74.21875 
Q 39.75 74.21875 46.484375 68.546875 
Q 53.21875 62.890625 53.21875 53.421875 
Q 53.21875 48.921875 51.53125 44.890625 
Q 49.859375 40.875 45.40625 35.40625 
Q 44.1875 33.984375 37.640625 27.21875 
Q 31.109375 20.453125 19.1875 8.296875 
z
" id="DejaVuSans-50"/>
       </defs>
       <use xlink:href="#DejaVuSans-50"/>
      </g>
     </g>
    </g>
    <g id="xtick_3">
     <g id="line2d_3">
      <g>
       <use style="stroke:#000000;stroke-width:0.8;" x="227.05601" xlink:href="#m0ab2f396db" y="320.4"/>
      </g>
     </g>
     <g id="text_3">
      <!-- 4 -->
      <g transform="translate(223.87476 334.998438)scale(0.1 -0.1)">
       <defs>
        <path d="M 37.796875 64.3125 
L 12.890625 25.390625 
L 37.796875 25.390625 
z
M 35.203125 72.90625 
L 47.609375 72.90625 
L 47.609375 25.390625 
L 58.015625 25.390625 
L 58.015625 17.1875 
L 47.609375 17.1875 
L 47.609375 0 
L 37.796875 0 
L 37.796875 17.1875 
L 4.890625 17.1875 
L 4.890625 26.703125 
z
" id="DejaVuSans-52"/>
       </defs>
       <use xlink:href="#DejaVuSans-52"/>
      </g>
     </g>
    </g>
    <g id="xtick_4">
     <g id="line2d_4">
      <g>
       <use style="stroke:#000000;stroke-width:0.8;" x="300.109137" xlink:href="#m0ab2f396db" y="320.4"/>
      </g>
     </g>
     <g id="text_4">
      <!-- 6 -->
      <g transform="translate(296.927887 334.998438)scale(0.1 -0.1)">
       <defs>
        <path d="M 33.015625 40.375 
Q 26.375 40.375 22.484375 35.828125 
Q 18.609375 31.296875 18.609375 23.390625 
Q 18.609375 15.53125 22.484375 10.953125 
Q 26.375 6.390625 33.015625 6.390625 
Q 39.65625 6.390625 43.53125 10.953125 
Q 47.40625 15.53125 47.40625 23.390625 
Q 47.40625 31.296875 43.53125 35.828125 
Q 39.65625 40.375 33.015625 40.375 
z
M 52.59375 71.296875 
L 52.59375 62.3125 
Q 48.875 64.0625 45.09375 64.984375 
Q 41.3125 65.921875 37.59375 65.921875 
Q 27.828125 65.921875 22.671875 59.328125 
Q 17.53125 52.734375 16.796875 39.40625 
Q 19.671875 43.65625 24.015625 45.921875 
Q 28.375 48.1875 33.59375 48.1875 
Q 44.578125 48.1875 50.953125 41.515625 
Q 57.328125 34.859375 57.328125 23.390625 
Q 57.328125 12.15625 50.6875 5.359375 
Q 44.046875 -1.421875 33.015625 -1.421875 
Q 20.359375 -1.421875 13.671875 8.265625 
Q 6.984375 17.96875 6.984375 36.375 
Q 6.984375 53.65625 15.1875 63.9375 
Q 23.390625 74.21875 37.203125 74.21875 
Q 40.921875 74.21875 44.703125 73.484375 
Q 48.484375 72.75 52.59375 71.296875 
z
" id="DejaVuSans-54"/>
       </defs>
       <use xlink:href="#DejaVuSans-54"/>
      </g>
     </g>
    </g>
    <g id="xtick_5">
     <g id="line2d_5">
      <g>
       <use style="stroke:#000000;stroke-width:0.8;" x="373.162264" xlink:href="#m0ab2f396db" y="320.4"/>
      </g>
     </g>
     <g id="text_5">
      <!-- 8 -->
      <g transform="translate(369.981014 334.998438)scale(0.1 -0.1)">
       <defs>
        <path d="M 31.78125 34.625 
Q 24.75 34.625 20.71875 30.859375 
Q 16.703125 27.09375 16.703125 20.515625 
Q 16.703125 13.921875 20.71875 10.15625 
Q 24.75 6.390625 31.78125 6.390625 
Q 38.8125 6.390625 42.859375 10.171875 
Q 46.921875 13.96875 46.921875 20.515625 
Q 46.921875 27.09375 42.890625 30.859375 
Q 38.875 34.625 31.78125 34.625 
z
M 21.921875 38.8125 
Q 15.578125 40.375 12.03125 44.71875 
Q 8.5 49.078125 8.5 55.328125 
Q 8.5 64.0625 14.71875 69.140625 
Q 20.953125 74.21875 31.78125 74.21875 
Q 42.671875 74.21875 48.875 69.140625 
Q 55.078125 64.0625 55.078125 55.328125 
Q 55.078125 49.078125 51.53125 44.71875 
Q 48 40.375 41.703125 38.8125 
Q 48.828125 37.15625 52.796875 32.3125 
Q 56.78125 27.484375 56.78125 20.515625 
Q 56.78125 9.90625 50.3125 4.234375 
Q 43.84375 -1.421875 31.78125 -1.421875 
Q 19.734375 -1.421875 13.25 4.234375 
Q 6.78125 9.90625 6.78125 20.515625 
Q 6.78125 27.484375 10.78125 32.3125 
Q 14.796875 37.15625 21.921875 38.8125 
z
M 18.3125 54.390625 
Q 18.3125 48.734375 21.84375 45.5625 
Q 25.390625 42.390625 31.78125 42.390625 
Q 38.140625 42.390625 41.71875 45.5625 
Q 45.3125 48.734375 45.3125 54.390625 
Q 45.3125 60.0625 41.71875 63.234375 
Q 38.140625 66.40625 31.78125 66.40625 
Q 25.390625 66.40625 21.84375 63.234375 
Q 18.3125 60.0625 18.3125 54.390625 
z
" id="DejaVuSans-56"/>
       </defs>
       <use xlink:href="#DejaVuSans-56"/>
      </g>
     </g>
    </g>
    <g id="xtick_6">
     <g id="line2d_6">
      <g>
       <use style="stroke:#000000;stroke-width:0.8;" x="446.215391" xlink:href="#m0ab2f396db" y="320.4"/>
      </g>
     </g>
     <g id="text_6">
      <!-- 10 -->
      <g transform="translate(439.852891 334.998438)scale(0.1 -0.1)">
       <defs>
        <path d="M 12.40625 8.296875 
L 28.515625 8.296875 
L 28.515625 63.921875 
L 10.984375 60.40625 
L 10.984375 69.390625 
L 28.421875 72.90625 
L 38.28125 72.90625 
L 38.28125 8.296875 
L 54.390625 8.296875 
L 54.390625 0 
L 12.40625 0 
z
" id="DejaVuSans-49"/>
       </defs>
       <use xlink:href="#DejaVuSans-49"/>
       <use x="63.623047" xlink:href="#DejaVuSans-48"/>
      </g>
     </g>
    </g>
   </g>
   <g id="matplotlib.axis_2">
    <g id="ytick_1">
     <g id="line2d_7">
      <defs>
       <path d="M 0 0 
L -3.5 0 
" id="m1c13480014" style="stroke:#000000;stroke-width:0.8;"/>
      </defs>
      <g>
       <use style="stroke:#000000;stroke-width:0.8;" x="64.44" xlink:href="#m1c13480014" y="307.800676"/>
      </g>
     </g>
     <g id="text_7">
      <!-- 0.0 -->
      <g transform="translate(41.536875 311.599895)scale(0.1 -0.1)">
       <defs>
        <path d="M 10.6875 12.40625 
L 21 12.40625 
L 21 0 
L 10.6875 0 
z
" id="DejaVuSans-46"/>
       </defs>
       <use xlink:href="#DejaVuSans-48"/>
       <use x="63.623047" xlink:href="#DejaVuSans-46"/>
       <use x="95.410156" xlink:href="#DejaVuSans-48"/>
      </g>
     </g>
    </g>
    <g id="ytick_2">
     <g id="line2d_8">
      <g>
       <use style="stroke:#000000;stroke-width:0.8;" x="64.44" xlink:href="#m1c13480014" y="274.476863"/>
      </g>
     </g>
     <g id="text_8">
      <!-- 0.5 -->
      <g transform="translate(41.536875 278.276082)scale(0.1 -0.1)">
       <defs>
        <path d="M 10.796875 72.90625 
L 49.515625 72.90625 
L 49.515625 64.59375 
L 19.828125 64.59375 
L 19.828125 46.734375 
Q 21.96875 47.46875 24.109375 47.828125 
Q 26.265625 48.1875 28.421875 48.1875 
Q 40.625 48.1875 47.75 41.5 
Q 54.890625 34.8125 54.890625 23.390625 
Q 54.890625 11.625 47.5625 5.09375 
Q 40.234375 -1.421875 26.90625 -1.421875 
Q 22.3125 -1.421875 17.546875 -0.640625 
Q 12.796875 0.140625 7.71875 1.703125 
L 7.71875 11.625 
Q 12.109375 9.234375 16.796875 8.0625 
Q 21.484375 6.890625 26.703125 6.890625 
Q 35.15625 6.890625 40.078125 11.328125 
Q 45.015625 15.765625 45.015625 23.390625 
Q 45.015625 31 40.078125 35.4375 
Q 35.15625 39.890625 26.703125 39.890625 
Q 22.75 39.890625 18.8125 39.015625 
Q 14.890625 38.140625 10.796875 36.28125 
z
" id="DejaVuSans-53"/>
       </defs>
       <use xlink:href="#DejaVuSans-48"/>
       <use x="63.623047" xlink:href="#DejaVuSans-46"/>
       <use x="95.410156" xlink:href="#DejaVuSans-53"/>
      </g>
     </g>
    </g>
    <g id="ytick_3">
     <g id="line2d_9">
      <g>
       <use style="stroke:#000000;stroke-width:0.8;" x="64.44" xlink:href="#m1c13480014" y="241.15305"/>
      </g>
     </g>
     <g id="text_9">
      <!-- 1.0 -->
      <g transform="translate(41.536875 244.952268)scale(0.1 -0.1)">
       <use xlink:href="#DejaVuSans-49"/>
       <use x="63.623047" xlink:href="#DejaVuSans-46"/>
       <use x="95.410156" xlink:href="#DejaVuSans-48"/>
      </g>
     </g>
    </g>
    <g id="ytick_4">
     <g id="line2d_10">
      <g>
       <use style="stroke:#000000;stroke-width:0.8;" x="64.44" xlink:href="#m1c13480014" y="207.829237"/>
      </g>
     </g>
     <g id="text_10">
      <!-- 1.5 -->
      <g transform="translate(41.536875 211.628455)scale(0.1 -0.1)">
       <use xlink:href="#DejaVuSans-49"/>
       <use x="63.623047" xlink:href="#DejaVuSans-46"/>
       <use x="95.410156" xlink:href="#DejaVuSans-53"/>
      </g>
     </g>
    </g>
    <g id="ytick_5">
     <g id="line2d_11">
      <g>
       <use style="stroke:#000000;stroke-width:0.8;" x="64.44" xlink:href="#m1c13480014" y="174.505423"/>
      </g>
     </g>
     <g id="text_11">
      <!-- 2.0 -->
      <g transform="translate(41.536875 178.304642)scale(0.1 -0.1)">
       <use xlink:href="#DejaVuSans-50"/>
       <use x="63.623047" xlink:href="#DejaVuSans-46"/>
       <use x="95.410156" xlink:href="#DejaVuSans-48"/>
      </g>
     </g>
    </g>
    <g id="ytick_6">
     <g id="line2d_12">
      <g>
       <use style="stroke:#000000;stroke-width:0.8;" x="64.44" xlink:href="#m1c13480014" y="141.18161"/>
      </g>
     </g>
     <g id="text_12">
      <!-- 2.5 -->
      <g transform="translate(41.536875 144.980829)scale(0.1 -0.1)">
       <use xlink:href="#DejaVuSans-50"/>
       <use x="63.623047" xlink:href="#DejaVuSans-46"/>
       <use x="95.410156" xlink:href="#DejaVuSans-53"/>
      </g>
     </g>
    </g>
    <g id="ytick_7">
     <g id="line2d_13">
      <g>
       <use style="stroke:#000000;stroke-width:0.8;" x="64.44" xlink:href="#m1c13480014" y="107.857797"/>
      </g>
     </g>
     <g id="text_13">
      <!-- 3.0 -->
      <g transform="translate(41.536875 111.657016)scale(0.1 -0.1)">
       <defs>
        <path d="M 40.578125 39.3125 
Q 47.65625 37.796875 51.625 33 
Q 55.609375 28.21875 55.609375 21.1875 
Q 55.609375 10.40625 48.1875 4.484375 
Q 40.765625 -1.421875 27.09375 -1.421875 
Q 22.515625 -1.421875 17.65625 -0.515625 
Q 12.796875 0.390625 7.625 2.203125 
L 7.625 11.71875 
Q 11.71875 9.328125 16.59375 8.109375 
Q 21.484375 6.890625 26.8125 6.890625 
Q 36.078125 6.890625 40.9375 10.546875 
Q 45.796875 14.203125 45.796875 21.1875 
Q 45.796875 27.640625 41.28125 31.265625 
Q 36.765625 34.90625 28.71875 34.90625 
L 20.21875 34.90625 
L 20.21875 43.015625 
L 29.109375 43.015625 
Q 36.375 43.015625 40.234375 45.921875 
Q 44.09375 48.828125 44.09375 54.296875 
Q 44.09375 59.90625 40.109375 62.90625 
Q 36.140625 65.921875 28.71875 65.921875 
Q 24.65625 65.921875 20.015625 65.03125 
Q 15.375 64.15625 9.8125 62.3125 
L 9.8125 71.09375 
Q 15.4375 72.65625 20.34375 73.4375 
Q 25.25 74.21875 29.59375 74.21875 
Q 40.828125 74.21875 47.359375 69.109375 
Q 53.90625 64.015625 53.90625 55.328125 
Q 53.90625 49.265625 50.4375 45.09375 
Q 46.96875 40.921875 40.578125 39.3125 
z
" id="DejaVuSans-51"/>
       </defs>
       <use xlink:href="#DejaVuSans-51"/>
       <use x="63.623047" xlink:href="#DejaVuSans-46"/>
       <use x="95.410156" xlink:href="#DejaVuSans-48"/>
      </g>
     </g>
    </g>
    <g id="ytick_8">
     <g id="line2d_14">
      <g>
       <use style="stroke:#000000;stroke-width:0.8;" x="64.44" xlink:href="#m1c13480014" y="74.533984"/>
      </g>
     </g>
     <g id="text_14">
      <!-- 3.5 -->
      <g transform="translate(41.536875 78.333203)scale(0.1 -0.1)">
       <use xlink:href="#DejaVuSans-51"/>
       <use x="63.623047" xlink:href="#DejaVuSans-46"/>
       <use x="95.410156" xlink:href="#DejaVuSans-53"/>
      </g>
     </g>
    </g>
   </g>
   <g id="line2d_15">
    <path clip-path="url(#p6fcdfad458)" d="M 122.855076 307.767496 
L 123.539868 307.326682 
L 124.224661 307.772236 
L 124.909454 307.773816 
L 125.594246 307.770656 
L 126.279039 307.772236 
L 126.963831 307.756437 
L 127.648624 307.745377 
L 128.333417 307.754857 
L 129.018209 307.716937 
L 129.703002 307.555779 
L 130.387794 307.513119 
L 131.072587 307.546299 
L 131.75738 307.568419 
L 132.442172 306.749989 
L 133.126965 307.44202 
L 133.811758 307.45782 
L 134.49655 307.517859 
L 135.181343 307.186063 
L 135.866135 306.791068 
L 136.550928 307.203443 
L 137.235721 307.291922 
L 137.920513 307.181323 
L 138.605306 306.204895 
L 139.290099 307.114964 
L 139.974891 306.945906 
L 140.659684 307.024905 
L 141.344476 307.029645 
L 142.029269 306.827408 
L 142.714062 306.310754 
L 143.398854 306.315494 
L 144.083647 306.554071 
L 144.76844 306.230175 
L 145.453232 305.912599 
L 146.138025 305.729321 
L 146.822817 305.204767 
L 147.50761 304.888771 
L 148.192403 305.470204 
L 148.877195 304.348417 
L 149.561988 305.481264 
L 150.246781 304.876131 
L 150.931573 305.147888 
L 151.616366 305.163688 
L 152.301158 303.904443 
L 152.985951 304.11458 
L 153.670744 302.852175 
L 154.355536 303.198191 
L 155.040329 301.422292 
L 155.725122 300.510643 
L 156.409914 299.968709 
L 157.094707 300.079308 
L 157.779499 296.845087 
L 158.464292 297.036264 
L 159.149085 293.354908 
L 159.833877 292.803495 
L 160.51867 288.526486 
L 161.203463 291.120815 
L 161.888255 287.567437 
L 162.573048 281.305972 
L 163.25784 278.525205 
L 163.942633 278.485706 
L 164.627426 272.507057 
L 165.312218 252.872631 
L 165.997011 242.353116 
L 166.681804 218.749778 
L 167.366596 199.529307 
L 168.051389 172.693327 
L 168.736181 89.780655 
L 169.420974 74.911452 
L 170.105767 55.8 
L 170.790559 82.391083 
L 171.475352 125.821605 
L 172.160145 152.156731 
L 172.844937 160.69495 
L 173.52973 166.351282 
L 174.214522 176.072906 
L 174.899315 177.513849 
L 175.584108 187.733167 
L 176.2689 193.669157 
L 176.953693 195.85743 
L 177.638485 195.359736 
L 178.323278 189.693924 
L 179.008071 183.874853 
L 179.692863 202.227915 
L 180.377656 260.560819 
L 181.062449 275.085586 
L 181.747241 285.880017 
L 182.432034 295.589002 
L 183.116826 300.542243 
L 183.801619 301.128416 
L 184.486412 301.321173 
L 185.171204 301.61189 
L 185.855997 302.356061 
L 186.54079 302.803196 
L 187.225582 303.784364 
L 187.910375 305.83044 
L 188.595167 306.223855 
L 189.27996 306.558811 
L 189.964753 307.132344 
L 190.649545 307.521019 
" style="fill:none;stroke:#1f77b4;stroke-linecap:square;stroke-width:1.5;"/>
   </g>
   <g id="line2d_16">
    <path clip-path="url(#p6fcdfad458)" d="M 121.721523 307.775804 
L 122.417552 307.768032 
L 123.113581 307.321898 
L 123.809611 307.754042 
L 124.50564 307.749378 
L 125.201669 307.726061 
L 125.897699 307.721398 
L 126.593728 307.702744 
L 127.289757 307.567505 
L 127.985787 307.485118 
L 128.681816 307.509989 
L 129.377845 307.503772 
L 130.073875 306.880427 
L 130.769904 306.846229 
L 131.465933 307.136916 
L 132.161963 307.098054 
L 132.857992 306.57886 
L 133.554021 306.944161 
L 134.250051 306.359679 
L 134.94608 306.673682 
L 135.642109 306.577305 
L 136.338139 306.369006 
L 137.034168 305.318181 
L 137.730197 305.742553 
L 138.426227 305.186051 
L 139.122256 304.579806 
L 139.818285 304.634213 
L 140.514315 304.012423 
L 141.210344 304.284456 
L 141.906373 303.625359 
L 142.602403 302.95849 
L 143.298432 302.771953 
L 143.994461 300.960991 
L 144.69049 300.482213 
L 145.38652 299.541756 
L 146.082549 296.745257 
L 146.778578 296.578929 
L 147.474608 293.488634 
L 148.170637 291.441392 
L 148.866666 282.46586 
L 149.562696 269.770471 
L 150.258725 267.256887 
L 150.954754 265.504995 
L 151.650784 263.31785 
L 152.346813 259.856036 
L 153.042842 253.490465 
L 153.738872 249.770609 
L 154.434901 243.504525 
L 155.13093 231.667206 
L 155.82696 221.04704 
L 156.522989 212.881388 
L 157.219018 199.834688 
L 157.915048 206.876455 
L 158.611077 206.212695 
L 159.307106 209.954314 
L 160.003136 212.483443 
L 160.699165 208.883281 
L 161.395194 207.689445 
L 162.091224 203.246759 
L 162.787253 194.90856 
L 163.483282 192.898626 
L 164.179312 185.583271 
L 164.875341 179.738449 
L 165.57137 174.344425 
L 166.2674 169.124501 
L 166.963429 163.789547 
L 167.659458 160.208039 
L 168.355487 164.939857 
L 169.051517 182.053061 
L 169.747546 192.30948 
L 170.443575 215.996554 
L 171.139605 262.002765 
L 171.835634 277.875498 
L 172.531663 277.819537 
L 173.227693 278.811292 
L 173.923722 279.478161 
L 174.619751 281.447679 
L 175.315781 282.444097 
L 176.01181 285.249923 
L 176.707839 287.188352 
L 177.403869 289.663074 
L 178.099898 291.791149 
L 178.795927 292.989648 
L 179.491957 295.616709 
L 180.187986 297.084133 
L 180.884015 298.422535 
L 181.580045 299.945919 
L 182.276074 301.934091 
L 182.972103 304.113464 
L 183.668133 304.387051 
L 184.364162 304.564261 
L 185.060191 304.68551 
L 185.756221 304.861166 
L 186.45225 305.336835 
L 187.148279 305.686592 
L 187.844309 306.774723 
L 188.540338 306.995459 
L 189.236367 307.195986 
L 189.932397 307.468019 
L 190.628426 307.65611 
" style="fill:none;stroke:#ff7f0e;stroke-linecap:square;stroke-width:1.5;"/>
   </g>
   <g id="line2d_17">
    <path clip-path="url(#p6fcdfad458)" d="M 86.821145 307.795508 
L 87.867932 307.797575 
L 88.914719 307.799642 
L 89.961506 307.799642 
L 91.008292 307.798609 
L 92.055079 307.797575 
L 93.101866 307.791374 
L 94.148653 307.786206 
L 95.19544 307.784138 
L 96.242227 307.780004 
L 97.289014 307.771735 
L 98.335801 307.771735 
L 99.382588 307.769668 
L 100.429374 307.746929 
L 101.476161 307.768634 
L 102.522948 307.73866 
L 103.569735 307.730391 
L 104.616522 307.733492 
L 105.663309 307.730391 
L 106.710096 307.72729 
L 107.756883 307.694215 
L 108.80367 307.680778 
L 109.850456 307.6353 
L 110.897243 307.605326 
L 111.94403 307.60946 
L 112.990817 307.550545 
L 114.037604 307.551578 
L 115.084391 307.565015 
L 116.131178 307.547444 
L 117.177965 307.548478 
L 118.224752 307.49163 
L 119.271538 307.414109 
L 120.318325 307.360362 
L 121.365112 307.373799 
L 122.411899 307.248733 
L 123.458686 306.896276 
L 124.505473 307.146407 
L 125.55226 307.090593 
L 126.599047 306.983098 
L 127.645834 306.896276 
L 128.692621 306.810487 
L 129.739407 306.579994 
L 130.786194 306.571725 
L 131.832981 306.235805 
L 132.879768 305.871978 
L 133.926555 306.17999 
L 134.973342 305.971203 
L 136.020129 305.143289 
L 137.066916 305.423395 
L 138.113703 304.512793 
L 139.160489 304.616153 
L 140.207276 304.307106 
L 141.254063 304.102454 
L 142.30085 302.870402 
L 143.347637 302.291585 
L 144.394424 300.99545 
L 145.441211 298.992333 
L 146.487998 297.045029 
L 147.534785 293.479108 
L 148.581571 291.46462 
L 149.628358 289.140053 
L 150.675145 281.744641 
L 151.721932 282.704856 
L 152.768719 278.816451 
L 153.815506 269.285621 
L 154.862293 256.059669 
L 155.90908 240.827498 
L 156.955867 204.626675 
L 158.002653 184.235804 
L 159.04944 197.546511 
L 160.096227 213.314087 
L 161.143014 217.238668 
L 162.189801 219.998381 
L 163.236588 212.313562 
L 164.283375 216.129615 
L 165.330162 195.843138 
L 166.376949 186.372256 
L 167.423735 185.84512 
L 168.470522 184.042521 
L 169.517309 205.309885 
L 170.564096 212.794186 
L 171.610883 222.104859 
L 172.65767 228.047028 
L 173.704457 231.437238 
L 174.751244 233.762839 
L 175.798031 250.461689 
L 176.844818 273.827261 
L 177.891604 282.194257 
L 178.938391 290.516809 
L 179.985178 295.289976 
L 181.031965 299.366496 
L 182.078752 303.230095 
L 183.125539 304.206847 
L 184.172326 304.407366 
L 185.219113 304.778428 
L 186.2659 305.916422 
L 187.312686 306.427021 
L 188.359473 306.801184 
L 189.40626 307.155709 
L 190.453047 307.57225 
" style="fill:none;stroke:#2ca02c;stroke-linecap:square;stroke-width:1.5;"/>
   </g>
   <g id="line2d_18">
    <path clip-path="url(#p6fcdfad458)" d="M 82.600364 253.590866 
L 85.901579 301.630861 
L 89.202794 302.255873 
L 92.50401 302.184096 
L 95.805225 302.322077 
L 99.10644 302.196878 
L 102.407656 302.27226 
L 105.708871 302.167709 
L 109.010086 301.819643 
L 112.311302 301.848157 
L 115.612517 301.562363 
L 118.913732 301.384069 
L 122.214948 301.261164 
L 125.516163 300.935057 
L 128.817378 300.638447 
L 132.118593 300.238597 
L 135.419809 300.01573 
L 138.721024 299.742062 
L 142.022239 299.267159 
L 145.323455 298.721134 
L 148.62467 298.114149 
L 151.925885 297.720526 
L 155.227101 297.25185 
L 158.528316 296.172255 
L 161.829531 295.300124 
L 165.130747 294.433236 
L 168.431962 293.2114 
L 171.733177 291.038117 
L 175.034393 288.868768 
L 178.335608 286.058675 
L 181.636823 280.538453 
L 184.938039 266.112394 
L 188.239254 255.035241 
L 191.540469 276.237773 
L 194.841685 284.942045 
L 198.1429 287.509934 
L 201.444115 289.457072 
L 204.745331 293.649268 
L 208.046546 297.034554 
L 211.347761 296.981132 
L 214.648977 298.351765 
L 217.950192 299.272075 
L 221.251407 300.254985 
L 224.552622 301.223146 
L 227.853838 301.740984 
L 231.155053 301.94943 
L 234.456268 302.722583 
L 237.757484 303.315475 
L 241.058699 303.356115 
L 244.359914 303.850356 
L 247.66113 304.123696 
L 250.962345 304.327226 
L 254.26356 304.262005 
L 257.564776 304.237752 
L 260.865991 304.225297 
L 264.167206 304.700201 
L 267.468422 304.677586 
L 270.769637 304.693974 
L 274.070852 304.812618 
L 277.372068 304.785087 
L 280.673283 304.982062 
L 283.974498 304.967641 
L 287.275714 304.774927 
L 290.576929 305.074487 
L 293.878144 305.123648 
L 297.17936 305.003366 
L 300.480575 304.859485 
L 303.78179 305.40977 
L 307.083006 305.409443 
L 310.384221 305.391744 
L 313.685436 305.180021 
L 316.986652 305.613956 
L 320.287867 305.647386 
L 323.589082 305.668362 
L 326.890297 305.778812 
L 330.191513 305.516616 
L 333.492728 305.806671 
L 336.793943 305.765702 
L 340.095159 305.777829 
L 343.396374 306.005612 
L 346.697589 305.906305 
L 349.998805 306.091482 
L 353.30002 306.167191 
L 356.601235 306.133433 
L 359.902451 306.110491 
L 363.203666 306.295012 
L 366.504881 306.411689 
L 369.806097 306.46544 
L 373.107312 306.467734 
L 376.408527 306.486415 
L 379.709743 306.442497 
L 383.010958 306.718787 
L 386.312173 306.731569 
L 389.613389 306.890526 
L 392.914604 306.880366 
L 396.215819 307.025557 
L 399.517035 307.041945 
L 402.81825 307.227449 
L 406.119465 307.243836 
L 409.420681 307.540774 
" style="fill:none;stroke:#d62728;stroke-linecap:square;stroke-width:1.5;"/>
   </g>
   <g id="line2d_19">
    <path clip-path="url(#p6fcdfad458)" d="M 84.352619 307.723593 
L 86.303664 307.676456 
L 88.254709 307.502881 
L 90.205753 307.293814 
L 92.156798 307.21784 
L 94.107843 307.053692 
L 96.058887 306.212434 
L 98.009932 306.561248 
L 99.960977 305.66398 
L 101.912021 305.426631 
L 103.863066 304.565409 
L 105.814111 304.437307 
L 107.765156 303.156842 
L 109.7162 302.216318 
L 111.667245 301.758257 
L 113.61829 298.943341 
L 115.569334 295.490689 
L 117.520379 297.989508 
L 119.471424 296.608115 
L 121.422468 297.321826 
L 123.373513 296.685198 
L 125.324558 296.673552 
L 127.275603 297.421645 
L 129.226647 297.79486 
L 131.177692 297.705577 
L 133.128737 297.310734 
L 135.079781 297.029576 
L 137.030826 296.470031 
L 138.981871 295.815103 
L 140.932915 295.314895 
L 142.88396 294.089885 
L 144.835005 292.775593 
L 146.786049 289.651791 
L 148.737094 287.335973 
L 150.688139 285.861969 
L 152.639184 284.743434 
L 154.590228 282.940025 
L 156.541273 282.427062 
L 158.492318 281.349564 
L 160.443362 279.845614 
L 162.394407 278.992155 
L 164.345452 277.319066 
L 166.296496 276.376879 
L 168.247541 275.653186 
L 170.198586 274.26902 
L 172.14963 273.050665 
L 174.100675 270.886796 
L 176.05172 269.635722 
L 178.002765 269.449946 
L 179.953809 267.855604 
L 181.904854 266.288989 
L 183.855899 264.124565 
L 185.806943 261.172675 
L 187.757988 273.971779 
L 189.709033 282.213559 
L 191.660077 286.561262 
L 193.611122 290.18139 
L 195.562167 292.351359 
L 197.513211 294.36439 
L 199.464256 294.708213 
L 201.415301 297.220342 
L 203.366346 297.935162 
L 205.31739 298.89565 
L 207.268435 299.805672 
L 209.21948 300.310871 
L 211.170524 300.341372 
L 213.121569 300.542675 
L 215.072614 300.887607 
L 217.023658 300.853225 
L 218.974703 300.971899 
L 220.925748 301.631264 
L 222.876793 301.372842 
L 224.827837 301.707238 
L 226.778882 301.41277 
L 228.729927 301.813712 
L 230.680971 301.273022 
L 232.632016 302.12038 
L 234.583061 302.173063 
L 236.534105 301.712229 
L 238.48515 302.557923 
L 240.436195 302.495259 
L 242.387239 302.251255 
L 244.338284 302.780854 
L 246.289329 302.87291 
L 248.240374 302.625025 
L 250.191418 302.917829 
L 252.142463 302.944448 
L 254.093508 302.781409 
L 256.044552 303.410827 
L 257.995597 303.393082 
L 259.946642 303.538375 
L 261.897686 303.383654 
L 263.848731 303.4075 
L 265.799776 303.967045 
L 267.75082 302.810246 
L 269.701865 303.745778 
L 271.65291 306.313363 
L 273.603955 306.866253 
L 275.554999 307.19233 
L 277.506044 307.595491 
" style="fill:none;stroke:#9467bd;stroke-linecap:square;stroke-width:1.5;"/>
   </g>
   <g id="line2d_20">
    <path clip-path="url(#p6fcdfad458)" d="M 89.792011 307.79662 
L 91.392372 307.799324 
L 92.992734 307.8 
L 94.593096 307.797972 
L 96.193458 307.798648 
L 97.793819 307.799324 
L 99.394181 307.793239 
L 100.994543 307.789183 
L 102.594905 307.789183 
L 104.195267 307.787831 
L 105.795628 307.78445 
L 107.39599 307.779042 
L 108.996352 307.763492 
L 110.596714 307.768225 
L 112.197075 307.772957 
L 113.797437 307.756731 
L 115.397799 307.750647 
L 116.998161 307.754027 
L 118.598523 307.735097 
L 120.198884 307.737801 
L 121.799246 307.731041 
L 123.399608 307.699941 
L 124.99997 307.662757 
L 126.600331 307.434921 
L 128.200693 307.628954 
L 129.801055 307.584333 
L 131.401417 307.58839 
L 133.001779 307.606643 
L 134.60214 307.585009 
L 136.202502 307.426132 
L 137.802864 307.170577 
L 139.403226 307.359201 
L 141.003587 307.246973 
L 142.603949 307.0117 
L 144.204311 306.98939 
L 145.804673 306.908261 
L 147.405035 306.29574 
L 149.005396 306.103736 
L 150.605758 306.180132 
L 152.20612 306.226105 
L 153.806482 305.754207 
L 155.406843 305.376959 
L 157.007205 304.790128 
L 158.607567 304.530517 
L 160.207929 303.658384 
L 161.808291 303.146598 
L 163.408652 301.804595 
L 165.009014 302.173055 
L 166.609376 301.470616 
L 168.209738 300.654597 
L 169.810099 300.423381 
L 171.410461 298.878557 
L 173.010823 298.447223 
L 174.611185 297.202575 
L 176.211546 294.686912 
L 177.811908 292.625569 
L 179.41227 291.592531 
L 181.012632 290.322868 
L 182.612994 287.171698 
L 184.213355 282.519648 
L 185.813717 278.990553 
L 187.414079 276.214602 
L 189.014441 264.64431 
L 190.614802 261.647959 
L 192.215164 258.242586 
L 193.815526 251.917258 
L 195.415888 240.801962 
L 197.01625 223.238969 
L 198.616611 221.370307 
L 200.216973 213.753006 
L 201.817335 213.577903 
L 203.417697 217.626221 
L 205.018058 230.873172 
L 206.61842 237.908375 
L 208.218782 249.191337 
L 209.819144 261.009748 
L 211.419506 271.341477 
L 213.019867 274.271572 
L 214.620229 276.367394 
L 216.220591 279.19405 
L 217.820953 281.176969 
L 219.421314 283.408006 
L 221.021676 285.659325 
L 222.622038 288.793594 
L 224.2224 294.146054 
L 225.822762 299.49243 
L 227.423123 301.126495 
L 229.023485 301.470616 
L 230.623847 301.966853 
L 232.224209 301.903978 
L 233.82457 302.374524 
L 235.424932 302.788956 
L 237.025294 303.060061 
L 238.625656 303.263558 
L 240.226018 304.663027 
L 241.826379 306.373489 
L 243.426741 306.758173 
L 245.027103 307.054293 
L 246.627465 307.355821 
L 248.227826 307.662757 
" style="fill:none;stroke:#8c564b;stroke-linecap:square;stroke-width:1.5;"/>
   </g>
   <g id="line2d_21">
    <path clip-path="url(#p6fcdfad458)" d="M 82.783213 226.92119 
L 86.450126 297.465905 
L 90.117039 298.690404 
L 93.783953 298.511302 
L 97.450866 299.209414 
L 101.11778 299.359305 
L 104.784693 299.33747 
L 108.451606 299.149222 
L 112.11852 299.175777 
L 115.785433 299.319472 
L 119.452346 299.141845 
L 123.11926 298.597755 
L 126.786173 298.419243 
L 130.453086 298.512777 
L 134.12 298.244863 
L 137.786913 298.371149 
L 141.453827 297.792241 
L 145.12074 297.232512 
L 148.787653 297.218644 
L 152.454567 296.961647 
L 156.12148 296.479519 
L 159.788393 295.932183 
L 163.455307 295.560112 
L 167.12222 295.148798 
L 170.789134 294.490225 
L 174.456047 292.971256 
L 178.12296 292.334516 
L 181.789874 290.954226 
L 185.456787 289.824736 
L 189.1237 287.299022 
L 192.790614 283.962189 
L 196.457527 272.468422 
L 200.124441 278.529544 
L 203.791354 287.965563 
L 207.458267 292.277275 
L 211.125181 294.668736 
L 214.792094 294.477832 
L 218.459007 298.300629 
L 222.125921 300.748152 
L 225.792834 300.962071 
L 229.459747 301.359811 
L 233.126661 302.147327 
L 236.793574 302.849274 
L 240.460488 302.816228 
L 244.127401 303.76219 
L 247.794314 304.20478 
L 251.461228 304.446434 
L 255.128141 304.827652 
L 258.795054 304.991705 
L 262.461968 305.426033 
L 266.128881 305.588021 
L 269.795795 305.659721 
L 273.462708 305.68303 
L 277.129621 305.80135 
L 280.796535 305.906981 
L 284.463448 306.071624 
L 288.130361 306.118834 
L 291.797275 306.144799 
L 295.464188 306.27315 
L 299.131102 306.281117 
L 302.798015 306.389699 
L 306.464928 306.413599 
L 310.131842 306.442515 
L 313.798755 306.508313 
L 317.465668 306.480578 
L 321.132582 306.600667 
L 324.799495 306.680333 
L 328.466409 306.719281 
L 332.133322 306.74023 
L 335.800235 306.852943 
L 339.467149 306.889236 
L 343.134062 306.884515 
L 346.800975 306.891596 
L 350.467889 307.029389 
L 354.134802 307.035586 
L 357.801715 307.069812 
L 361.468629 307.090172 
L 365.135542 307.128529 
L 368.802456 307.169838 
L 372.469369 307.216752 
L 376.136282 307.233866 
L 379.803196 307.288452 
L 383.470109 307.330645 
L 387.137022 307.320318 
L 390.803936 307.406181 
L 394.470849 307.40146 
L 398.137763 307.42418 
L 401.804676 307.45044 
L 405.471589 307.505616 
L 409.138503 307.508862 
L 412.805416 307.562268 
L 416.472329 307.594134 
L 420.139243 307.617149 
L 423.806156 307.627476 
L 427.47307 307.641344 
L 431.139983 307.690029 
L 434.806896 307.720125 
L 438.47381 307.734878 
L 442.140723 307.759958 
L 445.807636 307.784448 
" style="fill:none;stroke:#e377c2;stroke-linecap:square;stroke-width:1.5;"/>
   </g>
   <g id="patch_3">
    <path d="M 64.44 320.4 
L 64.44 43.2 
" style="fill:none;stroke:#000000;stroke-linecap:square;stroke-linejoin:miter;stroke-width:0.8;"/>
   </g>
   <g id="patch_4">
    <path d="M 463.968 320.4 
L 463.968 43.2 
" style="fill:none;stroke:#000000;stroke-linecap:square;stroke-linejoin:miter;stroke-width:0.8;"/>
   </g>
   <g id="patch_5">
    <path d="M 64.44 320.4 
L 463.968 320.4 
" style="fill:none;stroke:#000000;stroke-linecap:square;stroke-linejoin:miter;stroke-width:0.8;"/>
   </g>
   <g id="patch_6">
    <path d="M 64.44 43.2 
L 463.968 43.2 
" style="fill:none;stroke:#000000;stroke-linecap:square;stroke-linejoin:miter;stroke-width:0.8;"/>
   </g>
   <g id="legend_1">
    <g id="patch_7">
     <path d="M 371.096125 153.946875 
L 456.968 153.946875 
Q 458.968 153.946875 458.968 151.946875 
L 458.968 50.2 
Q 458.968 48.2 456.968 48.2 
L 371.096125 48.2 
Q 369.096125 48.2 369.096125 50.2 
L 369.096125 151.946875 
Q 369.096125 153.946875 371.096125 153.946875 
z
" style="fill:#ffffff;opacity:0.8;stroke:#cccccc;stroke-linejoin:miter;"/>
    </g>
    <g id="line2d_22">
     <path d="M 373.096125 56.298437 
L 393.096125 56.298437 
" style="fill:none;stroke:#1f77b4;stroke-linecap:square;stroke-width:1.5;"/>
    </g>
    <g id="line2d_23"/>
    <g id="text_15">
     <!-- Full -->
     <g transform="translate(401.096125 59.798437)scale(0.1 -0.1)">
      <defs>
       <path d="M 9.8125 72.90625 
L 51.703125 72.90625 
L 51.703125 64.59375 
L 19.671875 64.59375 
L 19.671875 43.109375 
L 48.578125 43.109375 
L 48.578125 34.8125 
L 19.671875 34.8125 
L 19.671875 0 
L 9.8125 0 
z
" id="DejaVuSans-70"/>
       <path d="M 8.5 21.578125 
L 8.5 54.6875 
L 17.484375 54.6875 
L 17.484375 21.921875 
Q 17.484375 14.15625 20.5 10.265625 
Q 23.53125 6.390625 29.59375 6.390625 
Q 36.859375 6.390625 41.078125 11.03125 
Q 45.3125 15.671875 45.3125 23.6875 
L 45.3125 54.6875 
L 54.296875 54.6875 
L 54.296875 0 
L 45.3125 0 
L 45.3125 8.40625 
Q 42.046875 3.421875 37.71875 1 
Q 33.40625 -1.421875 27.6875 -1.421875 
Q 18.265625 -1.421875 13.375 4.4375 
Q 8.5 10.296875 8.5 21.578125 
z
M 31.109375 56 
z
" id="DejaVuSans-117"/>
       <path d="M 9.421875 75.984375 
L 18.40625 75.984375 
L 18.40625 0 
L 9.421875 0 
z
" id="DejaVuSans-108"/>
      </defs>
      <use xlink:href="#DejaVuSans-70"/>
      <use x="52.019531" xlink:href="#DejaVuSans-117"/>
      <use x="115.398438" xlink:href="#DejaVuSans-108"/>
      <use x="143.181641" xlink:href="#DejaVuSans-108"/>
     </g>
    </g>
    <g id="line2d_24">
     <path d="M 373.096125 70.976562 
L 393.096125 70.976562 
" style="fill:none;stroke:#ff7f0e;stroke-linecap:square;stroke-width:1.5;"/>
    </g>
    <g id="line2d_25"/>
    <g id="text_16">
     <!-- Fail1 -->
     <g transform="translate(401.096125 74.476562)scale(0.1 -0.1)">
      <defs>
       <path d="M 34.28125 27.484375 
Q 23.390625 27.484375 19.1875 25 
Q 14.984375 22.515625 14.984375 16.5 
Q 14.984375 11.71875 18.140625 8.90625 
Q 21.296875 6.109375 26.703125 6.109375 
Q 34.1875 6.109375 38.703125 11.40625 
Q 43.21875 16.703125 43.21875 25.484375 
L 43.21875 27.484375 
z
M 52.203125 31.203125 
L 52.203125 0 
L 43.21875 0 
L 43.21875 8.296875 
Q 40.140625 3.328125 35.546875 0.953125 
Q 30.953125 -1.421875 24.3125 -1.421875 
Q 15.921875 -1.421875 10.953125 3.296875 
Q 6 8.015625 6 15.921875 
Q 6 25.140625 12.171875 29.828125 
Q 18.359375 34.515625 30.609375 34.515625 
L 43.21875 34.515625 
L 43.21875 35.40625 
Q 43.21875 41.609375 39.140625 45 
Q 35.0625 48.390625 27.6875 48.390625 
Q 23 48.390625 18.546875 47.265625 
Q 14.109375 46.140625 10.015625 43.890625 
L 10.015625 52.203125 
Q 14.9375 54.109375 19.578125 55.046875 
Q 24.21875 56 28.609375 56 
Q 40.484375 56 46.34375 49.84375 
Q 52.203125 43.703125 52.203125 31.203125 
z
" id="DejaVuSans-97"/>
       <path d="M 9.421875 54.6875 
L 18.40625 54.6875 
L 18.40625 0 
L 9.421875 0 
z
M 9.421875 75.984375 
L 18.40625 75.984375 
L 18.40625 64.59375 
L 9.421875 64.59375 
z
" id="DejaVuSans-105"/>
      </defs>
      <use xlink:href="#DejaVuSans-70"/>
      <use x="48.394531" xlink:href="#DejaVuSans-97"/>
      <use x="109.673828" xlink:href="#DejaVuSans-105"/>
      <use x="137.457031" xlink:href="#DejaVuSans-108"/>
      <use x="165.240234" xlink:href="#DejaVuSans-49"/>
     </g>
    </g>
    <g id="line2d_26">
     <path d="M 373.096125 85.654687 
L 393.096125 85.654687 
" style="fill:none;stroke:#2ca02c;stroke-linecap:square;stroke-width:1.5;"/>
    </g>
    <g id="line2d_27"/>
    <g id="text_17">
     <!-- 5 side -->
     <g transform="translate(401.096125 89.154687)scale(0.1 -0.1)">
      <defs>
       <path id="DejaVuSans-32"/>
       <path d="M 44.28125 53.078125 
L 44.28125 44.578125 
Q 40.484375 46.53125 36.375 47.5 
Q 32.28125 48.484375 27.875 48.484375 
Q 21.1875 48.484375 17.84375 46.4375 
Q 14.5 44.390625 14.5 40.28125 
Q 14.5 37.15625 16.890625 35.375 
Q 19.28125 33.59375 26.515625 31.984375 
L 29.59375 31.296875 
Q 39.15625 29.25 43.1875 25.515625 
Q 47.21875 21.78125 47.21875 15.09375 
Q 47.21875 7.46875 41.1875 3.015625 
Q 35.15625 -1.421875 24.609375 -1.421875 
Q 20.21875 -1.421875 15.453125 -0.5625 
Q 10.6875 0.296875 5.421875 2 
L 5.421875 11.28125 
Q 10.40625 8.6875 15.234375 7.390625 
Q 20.0625 6.109375 24.8125 6.109375 
Q 31.15625 6.109375 34.5625 8.28125 
Q 37.984375 10.453125 37.984375 14.40625 
Q 37.984375 18.0625 35.515625 20.015625 
Q 33.0625 21.96875 24.703125 23.78125 
L 21.578125 24.515625 
Q 13.234375 26.265625 9.515625 29.90625 
Q 5.8125 33.546875 5.8125 39.890625 
Q 5.8125 47.609375 11.28125 51.796875 
Q 16.75 56 26.8125 56 
Q 31.78125 56 36.171875 55.265625 
Q 40.578125 54.546875 44.28125 53.078125 
z
" id="DejaVuSans-115"/>
       <path d="M 45.40625 46.390625 
L 45.40625 75.984375 
L 54.390625 75.984375 
L 54.390625 0 
L 45.40625 0 
L 45.40625 8.203125 
Q 42.578125 3.328125 38.25 0.953125 
Q 33.9375 -1.421875 27.875 -1.421875 
Q 17.96875 -1.421875 11.734375 6.484375 
Q 5.515625 14.40625 5.515625 27.296875 
Q 5.515625 40.1875 11.734375 48.09375 
Q 17.96875 56 27.875 56 
Q 33.9375 56 38.25 53.625 
Q 42.578125 51.265625 45.40625 46.390625 
z
M 14.796875 27.296875 
Q 14.796875 17.390625 18.875 11.75 
Q 22.953125 6.109375 30.078125 6.109375 
Q 37.203125 6.109375 41.296875 11.75 
Q 45.40625 17.390625 45.40625 27.296875 
Q 45.40625 37.203125 41.296875 42.84375 
Q 37.203125 48.484375 30.078125 48.484375 
Q 22.953125 48.484375 18.875 42.84375 
Q 14.796875 37.203125 14.796875 27.296875 
z
" id="DejaVuSans-100"/>
       <path d="M 56.203125 29.59375 
L 56.203125 25.203125 
L 14.890625 25.203125 
Q 15.484375 15.921875 20.484375 11.0625 
Q 25.484375 6.203125 34.421875 6.203125 
Q 39.59375 6.203125 44.453125 7.46875 
Q 49.3125 8.734375 54.109375 11.28125 
L 54.109375 2.78125 
Q 49.265625 0.734375 44.1875 -0.34375 
Q 39.109375 -1.421875 33.890625 -1.421875 
Q 20.796875 -1.421875 13.15625 6.1875 
Q 5.515625 13.8125 5.515625 26.8125 
Q 5.515625 40.234375 12.765625 48.109375 
Q 20.015625 56 32.328125 56 
Q 43.359375 56 49.78125 48.890625 
Q 56.203125 41.796875 56.203125 29.59375 
z
M 47.21875 32.234375 
Q 47.125 39.59375 43.09375 43.984375 
Q 39.0625 48.390625 32.421875 48.390625 
Q 24.90625 48.390625 20.390625 44.140625 
Q 15.875 39.890625 15.1875 32.171875 
z
" id="DejaVuSans-101"/>
      </defs>
      <use xlink:href="#DejaVuSans-53"/>
      <use x="63.623047" xlink:href="#DejaVuSans-32"/>
      <use x="95.410156" xlink:href="#DejaVuSans-115"/>
      <use x="147.509766" xlink:href="#DejaVuSans-105"/>
      <use x="175.292969" xlink:href="#DejaVuSans-100"/>
      <use x="238.769531" xlink:href="#DejaVuSans-101"/>
     </g>
    </g>
    <g id="line2d_28">
     <path d="M 373.096125 100.332812 
L 393.096125 100.332812 
" style="fill:none;stroke:#d62728;stroke-linecap:square;stroke-width:1.5;"/>
    </g>
    <g id="line2d_29"/>
    <g id="text_18">
     <!-- Flower -->
     <g transform="translate(401.096125 103.832812)scale(0.1 -0.1)">
      <defs>
       <path d="M 30.609375 48.390625 
Q 23.390625 48.390625 19.1875 42.75 
Q 14.984375 37.109375 14.984375 27.296875 
Q 14.984375 17.484375 19.15625 11.84375 
Q 23.34375 6.203125 30.609375 6.203125 
Q 37.796875 6.203125 41.984375 11.859375 
Q 46.1875 17.53125 46.1875 27.296875 
Q 46.1875 37.015625 41.984375 42.703125 
Q 37.796875 48.390625 30.609375 48.390625 
z
M 30.609375 56 
Q 42.328125 56 49.015625 48.375 
Q 55.71875 40.765625 55.71875 27.296875 
Q 55.71875 13.875 49.015625 6.21875 
Q 42.328125 -1.421875 30.609375 -1.421875 
Q 18.84375 -1.421875 12.171875 6.21875 
Q 5.515625 13.875 5.515625 27.296875 
Q 5.515625 40.765625 12.171875 48.375 
Q 18.84375 56 30.609375 56 
z
" id="DejaVuSans-111"/>
       <path d="M 4.203125 54.6875 
L 13.1875 54.6875 
L 24.421875 12.015625 
L 35.59375 54.6875 
L 46.1875 54.6875 
L 57.421875 12.015625 
L 68.609375 54.6875 
L 77.59375 54.6875 
L 63.28125 0 
L 52.6875 0 
L 40.921875 44.828125 
L 29.109375 0 
L 18.5 0 
z
" id="DejaVuSans-119"/>
       <path d="M 41.109375 46.296875 
Q 39.59375 47.171875 37.8125 47.578125 
Q 36.03125 48 33.890625 48 
Q 26.265625 48 22.1875 43.046875 
Q 18.109375 38.09375 18.109375 28.8125 
L 18.109375 0 
L 9.078125 0 
L 9.078125 54.6875 
L 18.109375 54.6875 
L 18.109375 46.1875 
Q 20.953125 51.171875 25.484375 53.578125 
Q 30.03125 56 36.53125 56 
Q 37.453125 56 38.578125 55.875 
Q 39.703125 55.765625 41.0625 55.515625 
z
" id="DejaVuSans-114"/>
      </defs>
      <use xlink:href="#DejaVuSans-70"/>
      <use x="57.519531" xlink:href="#DejaVuSans-108"/>
      <use x="85.302734" xlink:href="#DejaVuSans-111"/>
      <use x="146.484375" xlink:href="#DejaVuSans-119"/>
      <use x="228.271484" xlink:href="#DejaVuSans-101"/>
      <use x="289.794922" xlink:href="#DejaVuSans-114"/>
     </g>
    </g>
    <g id="line2d_30">
     <path d="M 373.096125 115.010937 
L 393.096125 115.010937 
" style="fill:none;stroke:#9467bd;stroke-linecap:square;stroke-width:1.5;"/>
    </g>
    <g id="line2d_31"/>
    <g id="text_19">
     <!-- T-shirt -->
     <g transform="translate(401.096125 118.510937)scale(0.1 -0.1)">
      <defs>
       <path d="M -0.296875 72.90625 
L 61.375 72.90625 
L 61.375 64.59375 
L 35.5 64.59375 
L 35.5 0 
L 25.59375 0 
L 25.59375 64.59375 
L -0.296875 64.59375 
z
" id="DejaVuSans-84"/>
       <path d="M 4.890625 31.390625 
L 31.203125 31.390625 
L 31.203125 23.390625 
L 4.890625 23.390625 
z
" id="DejaVuSans-45"/>
       <path d="M 54.890625 33.015625 
L 54.890625 0 
L 45.90625 0 
L 45.90625 32.71875 
Q 45.90625 40.484375 42.875 44.328125 
Q 39.84375 48.1875 33.796875 48.1875 
Q 26.515625 48.1875 22.3125 43.546875 
Q 18.109375 38.921875 18.109375 30.90625 
L 18.109375 0 
L 9.078125 0 
L 9.078125 75.984375 
L 18.109375 75.984375 
L 18.109375 46.1875 
Q 21.34375 51.125 25.703125 53.5625 
Q 30.078125 56 35.796875 56 
Q 45.21875 56 50.046875 50.171875 
Q 54.890625 44.34375 54.890625 33.015625 
z
" id="DejaVuSans-104"/>
       <path d="M 18.3125 70.21875 
L 18.3125 54.6875 
L 36.8125 54.6875 
L 36.8125 47.703125 
L 18.3125 47.703125 
L 18.3125 18.015625 
Q 18.3125 11.328125 20.140625 9.421875 
Q 21.96875 7.515625 27.59375 7.515625 
L 36.8125 7.515625 
L 36.8125 0 
L 27.59375 0 
Q 17.1875 0 13.234375 3.875 
Q 9.28125 7.765625 9.28125 18.015625 
L 9.28125 47.703125 
L 2.6875 47.703125 
L 2.6875 54.6875 
L 9.28125 54.6875 
L 9.28125 70.21875 
z
" id="DejaVuSans-116"/>
      </defs>
      <use xlink:href="#DejaVuSans-84"/>
      <use x="51.958984" xlink:href="#DejaVuSans-45"/>
      <use x="88.042969" xlink:href="#DejaVuSans-115"/>
      <use x="140.142578" xlink:href="#DejaVuSans-104"/>
      <use x="203.521484" xlink:href="#DejaVuSans-105"/>
      <use x="231.304688" xlink:href="#DejaVuSans-114"/>
      <use x="272.417969" xlink:href="#DejaVuSans-116"/>
     </g>
    </g>
    <g id="line2d_32">
     <path d="M 373.096125 129.689062 
L 393.096125 129.689062 
" style="fill:none;stroke:#8c564b;stroke-linecap:square;stroke-width:1.5;"/>
    </g>
    <g id="line2d_33"/>
    <g id="text_20">
     <!-- Legs -->
     <g transform="translate(401.096125 133.189062)scale(0.1 -0.1)">
      <defs>
       <path d="M 9.8125 72.90625 
L 19.671875 72.90625 
L 19.671875 8.296875 
L 55.171875 8.296875 
L 55.171875 0 
L 9.8125 0 
z
" id="DejaVuSans-76"/>
       <path d="M 45.40625 27.984375 
Q 45.40625 37.75 41.375 43.109375 
Q 37.359375 48.484375 30.078125 48.484375 
Q 22.859375 48.484375 18.828125 43.109375 
Q 14.796875 37.75 14.796875 27.984375 
Q 14.796875 18.265625 18.828125 12.890625 
Q 22.859375 7.515625 30.078125 7.515625 
Q 37.359375 7.515625 41.375 12.890625 
Q 45.40625 18.265625 45.40625 27.984375 
z
M 54.390625 6.78125 
Q 54.390625 -7.171875 48.1875 -13.984375 
Q 42 -20.796875 29.203125 -20.796875 
Q 24.46875 -20.796875 20.265625 -20.09375 
Q 16.0625 -19.390625 12.109375 -17.921875 
L 12.109375 -9.1875 
Q 16.0625 -11.328125 19.921875 -12.34375 
Q 23.78125 -13.375 27.78125 -13.375 
Q 36.625 -13.375 41.015625 -8.765625 
Q 45.40625 -4.15625 45.40625 5.171875 
L 45.40625 9.625 
Q 42.625 4.78125 38.28125 2.390625 
Q 33.9375 0 27.875 0 
Q 17.828125 0 11.671875 7.65625 
Q 5.515625 15.328125 5.515625 27.984375 
Q 5.515625 40.671875 11.671875 48.328125 
Q 17.828125 56 27.875 56 
Q 33.9375 56 38.28125 53.609375 
Q 42.625 51.21875 45.40625 46.390625 
L 45.40625 54.6875 
L 54.390625 54.6875 
z
" id="DejaVuSans-103"/>
      </defs>
      <use xlink:href="#DejaVuSans-76"/>
      <use x="53.962891" xlink:href="#DejaVuSans-101"/>
      <use x="115.486328" xlink:href="#DejaVuSans-103"/>
      <use x="178.962891" xlink:href="#DejaVuSans-115"/>
     </g>
    </g>
    <g id="line2d_34">
     <path d="M 373.096125 144.367187 
L 393.096125 144.367187 
" style="fill:none;stroke:#e377c2;stroke-linecap:square;stroke-width:1.5;"/>
    </g>
    <g id="line2d_35"/>
    <g id="text_21">
     <!-- Foldscreen -->
     <g transform="translate(401.096125 147.867187)scale(0.1 -0.1)">
      <defs>
       <path d="M 48.78125 52.59375 
L 48.78125 44.1875 
Q 44.96875 46.296875 41.140625 47.34375 
Q 37.3125 48.390625 33.40625 48.390625 
Q 24.65625 48.390625 19.8125 42.84375 
Q 14.984375 37.3125 14.984375 27.296875 
Q 14.984375 17.28125 19.8125 11.734375 
Q 24.65625 6.203125 33.40625 6.203125 
Q 37.3125 6.203125 41.140625 7.25 
Q 44.96875 8.296875 48.78125 10.40625 
L 48.78125 2.09375 
Q 45.015625 0.34375 40.984375 -0.53125 
Q 36.96875 -1.421875 32.421875 -1.421875 
Q 20.0625 -1.421875 12.78125 6.34375 
Q 5.515625 14.109375 5.515625 27.296875 
Q 5.515625 40.671875 12.859375 48.328125 
Q 20.21875 56 33.015625 56 
Q 37.15625 56 41.109375 55.140625 
Q 45.0625 54.296875 48.78125 52.59375 
z
" id="DejaVuSans-99"/>
       <path d="M 54.890625 33.015625 
L 54.890625 0 
L 45.90625 0 
L 45.90625 32.71875 
Q 45.90625 40.484375 42.875 44.328125 
Q 39.84375 48.1875 33.796875 48.1875 
Q 26.515625 48.1875 22.3125 43.546875 
Q 18.109375 38.921875 18.109375 30.90625 
L 18.109375 0 
L 9.078125 0 
L 9.078125 54.6875 
L 18.109375 54.6875 
L 18.109375 46.1875 
Q 21.34375 51.125 25.703125 53.5625 
Q 30.078125 56 35.796875 56 
Q 45.21875 56 50.046875 50.171875 
Q 54.890625 44.34375 54.890625 33.015625 
z
" id="DejaVuSans-110"/>
      </defs>
      <use xlink:href="#DejaVuSans-70"/>
      <use x="53.894531" xlink:href="#DejaVuSans-111"/>
      <use x="115.076172" xlink:href="#DejaVuSans-108"/>
      <use x="142.859375" xlink:href="#DejaVuSans-100"/>
      <use x="206.335938" xlink:href="#DejaVuSans-115"/>
      <use x="258.435547" xlink:href="#DejaVuSans-99"/>
      <use x="313.416016" xlink:href="#DejaVuSans-114"/>
      <use x="352.279297" xlink:href="#DejaVuSans-101"/>
      <use x="413.802734" xlink:href="#DejaVuSans-101"/>
      <use x="475.326172" xlink:href="#DejaVuSans-110"/>
     </g>
    </g>
   </g>
  </g>
 </g>
 <defs>
  <clipPath id="p6fcdfad458">
   <rect height="277.2" width="399.528" x="64.44" y="43.2"/>
  </clipPath>
 </defs>
</svg>
