<?xml version="1.0" encoding="utf-8" standalone="no"?>
<!DOCTYPE svg PUBLIC "-//W3C//DTD SVG 1.1//EN"
  "http://www.w3.org/Graphics/SVG/1.1/DTD/svg11.dtd">
<!-- Created with matplotlib (https://matplotlib.org/) -->
<svg height="360pt" version="1.1" viewBox="0 0 515.52 360" width="515.52pt" xmlns="http://www.w3.org/2000/svg" xmlns:xlink="http://www.w3.org/1999/xlink">
 <metadata>
  <rdf:RDF xmlns:cc="http://creativecommons.org/ns#" xmlns:dc="http://purl.org/dc/elements/1.1/" xmlns:rdf="http://www.w3.org/1999/02/22-rdf-syntax-ns#">
   <cc:Work>
    <dc:type rdf:resource="http://purl.org/dc/dcmitype/StillImage"/>
    <dc:date>2020-11-01T22:11:44.924947</dc:date>
    <dc:format>image/svg+xml</dc:format>
    <dc:creator>
     <cc:Agent>
      <dc:title>Matplotlib v3.3.1, https://matplotlib.org/</dc:title>
     </cc:Agent>
    </dc:creator>
   </cc:Work>
  </rdf:RDF>
 </metadata>
 <defs>
  <style type="text/css">*{stroke-linecap:butt;stroke-linejoin:round;}</style>
 </defs>
 <g id="figure_1">
  <g id="patch_1">
   <path d="M 0 360 
L 515.52 360 
L 515.52 0 
L 0 0 
z
" style="fill:#ffffff;"/>
  </g>
  <g id="axes_1">
   <g id="patch_2">
    <path d="M 64.44 320.4 
L 463.968 320.4 
L 463.968 43.2 
L 64.44 43.2 
z
" style="fill:#ffffff;"/>
   </g>
   <g id="matplotlib.axis_1">
    <g id="xtick_1">
     <g id="line2d_1">
      <defs>
       <path d="M 0 0 
L 0 3.5 
" id="m27e7c57a3b" style="stroke:#000000;stroke-width:0.8;"/>
      </defs>
      <g>
       <use style="stroke:#000000;stroke-width:0.8;" x="81.011157" xlink:href="#m27e7c57a3b" y="320.4"/>
      </g>
     </g>
     <g id="text_1">
      <!-- 0 -->
      <g transform="translate(77.829907 334.998438)scale(0.1 -0.1)">
       <defs>
        <path d="M 31.78125 66.40625 
Q 24.171875 66.40625 20.328125 58.90625 
Q 16.5 51.421875 16.5 36.375 
Q 16.5 21.390625 20.328125 13.890625 
Q 24.171875 6.390625 31.78125 6.390625 
Q 39.453125 6.390625 43.28125 13.890625 
Q 47.125 21.390625 47.125 36.375 
Q 47.125 51.421875 43.28125 58.90625 
Q 39.453125 66.40625 31.78125 66.40625 
z
M 31.78125 74.21875 
Q 44.046875 74.21875 50.515625 64.515625 
Q 56.984375 54.828125 56.984375 36.375 
Q 56.984375 17.96875 50.515625 8.265625 
Q 44.046875 -1.421875 31.78125 -1.421875 
Q 19.53125 -1.421875 13.0625 8.265625 
Q 6.59375 17.96875 6.59375 36.375 
Q 6.59375 54.828125 13.0625 64.515625 
Q 19.53125 74.21875 31.78125 74.21875 
z
" id="DejaVuSans-48"/>
       </defs>
       <use xlink:href="#DejaVuSans-48"/>
      </g>
     </g>
    </g>
    <g id="xtick_2">
     <g id="line2d_2">
      <g>
       <use style="stroke:#000000;stroke-width:0.8;" x="129.705046" xlink:href="#m27e7c57a3b" y="320.4"/>
      </g>
     </g>
     <g id="text_2">
      <!-- 2 -->
      <g transform="translate(126.523796 334.998438)scale(0.1 -0.1)">
       <defs>
        <path d="M 19.1875 8.296875 
L 53.609375 8.296875 
L 53.609375 0 
L 7.328125 0 
L 7.328125 8.296875 
Q 12.9375 14.109375 22.625 23.890625 
Q 32.328125 33.6875 34.8125 36.53125 
Q 39.546875 41.84375 41.421875 45.53125 
Q 43.3125 49.21875 43.3125 52.78125 
Q 43.3125 58.59375 39.234375 62.25 
Q 35.15625 65.921875 28.609375 65.921875 
Q 23.96875 65.921875 18.8125 64.3125 
Q 13.671875 62.703125 7.8125 59.421875 
L 7.8125 69.390625 
Q 13.765625 71.78125 18.9375 73 
Q 24.125 74.21875 28.421875 74.21875 
Q 39.75 74.21875 46.484375 68.546875 
Q 53.21875 62.890625 53.21875 53.421875 
Q 53.21875 48.921875 51.53125 44.890625 
Q 49.859375 40.875 45.40625 35.40625 
Q 44.1875 33.984375 37.640625 27.21875 
Q 31.109375 20.453125 19.1875 8.296875 
z
" id="DejaVuSans-50"/>
       </defs>
       <use xlink:href="#DejaVuSans-50"/>
      </g>
     </g>
    </g>
    <g id="xtick_3">
     <g id="line2d_3">
      <g>
       <use style="stroke:#000000;stroke-width:0.8;" x="178.398934" xlink:href="#m27e7c57a3b" y="320.4"/>
      </g>
     </g>
     <g id="text_3">
      <!-- 4 -->
      <g transform="translate(175.217684 334.998438)scale(0.1 -0.1)">
       <defs>
        <path d="M 37.796875 64.3125 
L 12.890625 25.390625 
L 37.796875 25.390625 
z
M 35.203125 72.90625 
L 47.609375 72.90625 
L 47.609375 25.390625 
L 58.015625 25.390625 
L 58.015625 17.1875 
L 47.609375 17.1875 
L 47.609375 0 
L 37.796875 0 
L 37.796875 17.1875 
L 4.890625 17.1875 
L 4.890625 26.703125 
z
" id="DejaVuSans-52"/>
       </defs>
       <use xlink:href="#DejaVuSans-52"/>
      </g>
     </g>
    </g>
    <g id="xtick_4">
     <g id="line2d_4">
      <g>
       <use style="stroke:#000000;stroke-width:0.8;" x="227.092823" xlink:href="#m27e7c57a3b" y="320.4"/>
      </g>
     </g>
     <g id="text_4">
      <!-- 6 -->
      <g transform="translate(223.911573 334.998438)scale(0.1 -0.1)">
       <defs>
        <path d="M 33.015625 40.375 
Q 26.375 40.375 22.484375 35.828125 
Q 18.609375 31.296875 18.609375 23.390625 
Q 18.609375 15.53125 22.484375 10.953125 
Q 26.375 6.390625 33.015625 6.390625 
Q 39.65625 6.390625 43.53125 10.953125 
Q 47.40625 15.53125 47.40625 23.390625 
Q 47.40625 31.296875 43.53125 35.828125 
Q 39.65625 40.375 33.015625 40.375 
z
M 52.59375 71.296875 
L 52.59375 62.3125 
Q 48.875 64.0625 45.09375 64.984375 
Q 41.3125 65.921875 37.59375 65.921875 
Q 27.828125 65.921875 22.671875 59.328125 
Q 17.53125 52.734375 16.796875 39.40625 
Q 19.671875 43.65625 24.015625 45.921875 
Q 28.375 48.1875 33.59375 48.1875 
Q 44.578125 48.1875 50.953125 41.515625 
Q 57.328125 34.859375 57.328125 23.390625 
Q 57.328125 12.15625 50.6875 5.359375 
Q 44.046875 -1.421875 33.015625 -1.421875 
Q 20.359375 -1.421875 13.671875 8.265625 
Q 6.984375 17.96875 6.984375 36.375 
Q 6.984375 53.65625 15.1875 63.9375 
Q 23.390625 74.21875 37.203125 74.21875 
Q 40.921875 74.21875 44.703125 73.484375 
Q 48.484375 72.75 52.59375 71.296875 
z
" id="DejaVuSans-54"/>
       </defs>
       <use xlink:href="#DejaVuSans-54"/>
      </g>
     </g>
    </g>
    <g id="xtick_5">
     <g id="line2d_5">
      <g>
       <use style="stroke:#000000;stroke-width:0.8;" x="275.786712" xlink:href="#m27e7c57a3b" y="320.4"/>
      </g>
     </g>
     <g id="text_5">
      <!-- 8 -->
      <g transform="translate(272.605462 334.998438)scale(0.1 -0.1)">
       <defs>
        <path d="M 31.78125 34.625 
Q 24.75 34.625 20.71875 30.859375 
Q 16.703125 27.09375 16.703125 20.515625 
Q 16.703125 13.921875 20.71875 10.15625 
Q 24.75 6.390625 31.78125 6.390625 
Q 38.8125 6.390625 42.859375 10.171875 
Q 46.921875 13.96875 46.921875 20.515625 
Q 46.921875 27.09375 42.890625 30.859375 
Q 38.875 34.625 31.78125 34.625 
z
M 21.921875 38.8125 
Q 15.578125 40.375 12.03125 44.71875 
Q 8.5 49.078125 8.5 55.328125 
Q 8.5 64.0625 14.71875 69.140625 
Q 20.953125 74.21875 31.78125 74.21875 
Q 42.671875 74.21875 48.875 69.140625 
Q 55.078125 64.0625 55.078125 55.328125 
Q 55.078125 49.078125 51.53125 44.71875 
Q 48 40.375 41.703125 38.8125 
Q 48.828125 37.15625 52.796875 32.3125 
Q 56.78125 27.484375 56.78125 20.515625 
Q 56.78125 9.90625 50.3125 4.234375 
Q 43.84375 -1.421875 31.78125 -1.421875 
Q 19.734375 -1.421875 13.25 4.234375 
Q 6.78125 9.90625 6.78125 20.515625 
Q 6.78125 27.484375 10.78125 32.3125 
Q 14.796875 37.15625 21.921875 38.8125 
z
M 18.3125 54.390625 
Q 18.3125 48.734375 21.84375 45.5625 
Q 25.390625 42.390625 31.78125 42.390625 
Q 38.140625 42.390625 41.71875 45.5625 
Q 45.3125 48.734375 45.3125 54.390625 
Q 45.3125 60.0625 41.71875 63.234375 
Q 38.140625 66.40625 31.78125 66.40625 
Q 25.390625 66.40625 21.84375 63.234375 
Q 18.3125 60.0625 18.3125 54.390625 
z
" id="DejaVuSans-56"/>
       </defs>
       <use xlink:href="#DejaVuSans-56"/>
      </g>
     </g>
    </g>
    <g id="xtick_6">
     <g id="line2d_6">
      <g>
       <use style="stroke:#000000;stroke-width:0.8;" x="324.480601" xlink:href="#m27e7c57a3b" y="320.4"/>
      </g>
     </g>
     <g id="text_6">
      <!-- 10 -->
      <g transform="translate(318.118101 334.998438)scale(0.1 -0.1)">
       <defs>
        <path d="M 12.40625 8.296875 
L 28.515625 8.296875 
L 28.515625 63.921875 
L 10.984375 60.40625 
L 10.984375 69.390625 
L 28.421875 72.90625 
L 38.28125 72.90625 
L 38.28125 8.296875 
L 54.390625 8.296875 
L 54.390625 0 
L 12.40625 0 
z
" id="DejaVuSans-49"/>
       </defs>
       <use xlink:href="#DejaVuSans-49"/>
       <use x="63.623047" xlink:href="#DejaVuSans-48"/>
      </g>
     </g>
    </g>
    <g id="xtick_7">
     <g id="line2d_7">
      <g>
       <use style="stroke:#000000;stroke-width:0.8;" x="373.174489" xlink:href="#m27e7c57a3b" y="320.4"/>
      </g>
     </g>
     <g id="text_7">
      <!-- 12 -->
      <g transform="translate(366.811989 334.998438)scale(0.1 -0.1)">
       <use xlink:href="#DejaVuSans-49"/>
       <use x="63.623047" xlink:href="#DejaVuSans-50"/>
      </g>
     </g>
    </g>
    <g id="xtick_8">
     <g id="line2d_8">
      <g>
       <use style="stroke:#000000;stroke-width:0.8;" x="421.868378" xlink:href="#m27e7c57a3b" y="320.4"/>
      </g>
     </g>
     <g id="text_8">
      <!-- 14 -->
      <g transform="translate(415.505878 334.998438)scale(0.1 -0.1)">
       <use xlink:href="#DejaVuSans-49"/>
       <use x="63.623047" xlink:href="#DejaVuSans-52"/>
      </g>
     </g>
    </g>
   </g>
   <g id="matplotlib.axis_2">
    <g id="ytick_1">
     <g id="line2d_9">
      <defs>
       <path d="M 0 0 
L -3.5 0 
" id="m1c3de508da" style="stroke:#000000;stroke-width:0.8;"/>
      </defs>
      <g>
       <use style="stroke:#000000;stroke-width:0.8;" x="64.44" xlink:href="#m1c3de508da" y="307.800636"/>
      </g>
     </g>
     <g id="text_9">
      <!-- 0.0 -->
      <g transform="translate(41.536875 311.599854)scale(0.1 -0.1)">
       <defs>
        <path d="M 10.6875 12.40625 
L 21 12.40625 
L 21 0 
L 10.6875 0 
z
" id="DejaVuSans-46"/>
       </defs>
       <use xlink:href="#DejaVuSans-48"/>
       <use x="63.623047" xlink:href="#DejaVuSans-46"/>
       <use x="95.410156" xlink:href="#DejaVuSans-48"/>
      </g>
     </g>
    </g>
    <g id="ytick_2">
     <g id="line2d_10">
      <g>
       <use style="stroke:#000000;stroke-width:0.8;" x="64.44" xlink:href="#m1c3de508da" y="249.601335"/>
      </g>
     </g>
     <g id="text_10">
      <!-- 0.5 -->
      <g transform="translate(41.536875 253.400553)scale(0.1 -0.1)">
       <defs>
        <path d="M 10.796875 72.90625 
L 49.515625 72.90625 
L 49.515625 64.59375 
L 19.828125 64.59375 
L 19.828125 46.734375 
Q 21.96875 47.46875 24.109375 47.828125 
Q 26.265625 48.1875 28.421875 48.1875 
Q 40.625 48.1875 47.75 41.5 
Q 54.890625 34.8125 54.890625 23.390625 
Q 54.890625 11.625 47.5625 5.09375 
Q 40.234375 -1.421875 26.90625 -1.421875 
Q 22.3125 -1.421875 17.546875 -0.640625 
Q 12.796875 0.140625 7.71875 1.703125 
L 7.71875 11.625 
Q 12.109375 9.234375 16.796875 8.0625 
Q 21.484375 6.890625 26.703125 6.890625 
Q 35.15625 6.890625 40.078125 11.328125 
Q 45.015625 15.765625 45.015625 23.390625 
Q 45.015625 31 40.078125 35.4375 
Q 35.15625 39.890625 26.703125 39.890625 
Q 22.75 39.890625 18.8125 39.015625 
Q 14.890625 38.140625 10.796875 36.28125 
z
" id="DejaVuSans-53"/>
       </defs>
       <use xlink:href="#DejaVuSans-48"/>
       <use x="63.623047" xlink:href="#DejaVuSans-46"/>
       <use x="95.410156" xlink:href="#DejaVuSans-53"/>
      </g>
     </g>
    </g>
    <g id="ytick_3">
     <g id="line2d_11">
      <g>
       <use style="stroke:#000000;stroke-width:0.8;" x="64.44" xlink:href="#m1c3de508da" y="191.402034"/>
      </g>
     </g>
     <g id="text_11">
      <!-- 1.0 -->
      <g transform="translate(41.536875 195.201253)scale(0.1 -0.1)">
       <use xlink:href="#DejaVuSans-49"/>
       <use x="63.623047" xlink:href="#DejaVuSans-46"/>
       <use x="95.410156" xlink:href="#DejaVuSans-48"/>
      </g>
     </g>
    </g>
    <g id="ytick_4">
     <g id="line2d_12">
      <g>
       <use style="stroke:#000000;stroke-width:0.8;" x="64.44" xlink:href="#m1c3de508da" y="133.202733"/>
      </g>
     </g>
     <g id="text_12">
      <!-- 1.5 -->
      <g transform="translate(41.536875 137.001952)scale(0.1 -0.1)">
       <use xlink:href="#DejaVuSans-49"/>
       <use x="63.623047" xlink:href="#DejaVuSans-46"/>
       <use x="95.410156" xlink:href="#DejaVuSans-53"/>
      </g>
     </g>
    </g>
    <g id="ytick_5">
     <g id="line2d_13">
      <g>
       <use style="stroke:#000000;stroke-width:0.8;" x="64.44" xlink:href="#m1c3de508da" y="75.003432"/>
      </g>
     </g>
     <g id="text_13">
      <!-- 2.0 -->
      <g transform="translate(41.536875 78.802651)scale(0.1 -0.1)">
       <use xlink:href="#DejaVuSans-50"/>
       <use x="63.623047" xlink:href="#DejaVuSans-46"/>
       <use x="95.410156" xlink:href="#DejaVuSans-48"/>
      </g>
     </g>
    </g>
   </g>
   <g id="line2d_14">
    <path clip-path="url(#pfcda1b2326)" d="M 110.728631 307.7615 
L 111.501053 307.309816 
L 112.273475 307.769654 
L 113.045897 307.768023 
L 113.818319 307.766392 
L 114.590741 307.75987 
L 115.363163 307.740302 
L 116.135585 307.741933 
L 116.908007 307.710951 
L 117.680429 307.518537 
L 118.45285 307.482663 
L 119.225272 307.50223 
L 119.997694 307.101096 
L 120.770116 307.040762 
L 121.542538 307.45005 
L 122.31496 307.459834 
L 123.087382 307.185888 
L 123.859804 307.114141 
L 124.632226 306.737466 
L 125.404648 307.223393 
L 126.17707 307.071744 
L 126.949492 306.077061 
L 127.721914 307.032609 
L 128.494336 306.87933 
L 129.266758 306.944555 
L 130.03918 306.845087 
L 130.811601 306.205881 
L 131.584023 306.628213 
L 132.356445 306.029773 
L 133.128867 306.135764 
L 133.901289 305.804746 
L 134.673711 305.561782 
L 135.446133 304.974756 
L 136.218555 304.754621 
L 136.990977 305.317188 
L 137.763399 304.583405 
L 138.535821 304.930729 
L 139.308243 304.606234 
L 140.080665 304.956819 
L 140.853087 304.633954 
L 141.625509 303.680037 
L 142.397931 303.761568 
L 143.170352 303.694712 
L 143.942774 303.265857 
L 144.715196 302.090173 
L 145.487618 301.695561 
L 146.26004 300.863941 
L 147.032462 299.166456 
L 147.804884 299.055573 
L 148.577306 298.89088 
L 149.349728 296.433522 
L 150.12215 294.889317 
L 150.894572 293.2114 
L 151.666994 291.730789 
L 152.439416 290.742628 
L 153.211838 285.315895 
L 153.98426 284.071725 
L 154.756682 279.938081 
L 155.529104 274.958141 
L 156.301525 270.9631 
L 157.073947 266.071214 
L 157.846369 255.987405 
L 158.618791 247.870135 
L 159.391213 234.017944 
L 160.163635 218.041043 
L 160.936057 184.852855 
L 161.708479 100.868949 
L 162.480901 55.8 
L 163.253323 78.1282 
L 164.025745 87.424415 
L 164.798167 101.615777 
L 165.570589 136.054657 
L 166.343011 158.056732 
L 167.115433 167.987261 
L 167.887855 179.584293 
L 168.660276 187.124321 
L 169.432698 188.957148 
L 170.20512 192.844567 
L 170.977542 199.611676 
L 171.749964 204.620968 
L 172.522386 208.643729 
L 173.294808 212.971418 
L 174.06723 217.263233 
L 174.839652 221.101733 
L 175.612074 230.97356 
L 176.384496 223.942288 
L 177.156918 268.014923 
L 177.92934 299.104492 
L 178.701762 299.942635 
L 179.474184 300.534554 
L 180.246606 301.170499 
L 181.019027 301.757525 
L 181.791449 302.264651 
L 182.563871 303.228352 
L 183.336293 303.551217 
L 184.108715 303.686559 
L 184.881137 304.612756 
L 185.653559 305.095422 
L 186.425981 306.791276 
L 187.198403 307.440267 
" style="fill:none;stroke:#1f77b4;stroke-linecap:square;stroke-width:1.5;"/>
   </g>
   <g id="line2d_15">
    <path clip-path="url(#pfcda1b2326)" d="M 110.226698 307.761754 
L 111.004165 307.313001 
L 111.781631 307.758514 
L 112.559098 307.761754 
L 113.336564 307.760134 
L 114.114031 307.730973 
L 114.891497 307.721253 
L 115.668964 307.701813 
L 116.44643 307.475006 
L 117.223897 307.533327 
L 118.001363 307.507407 
L 118.77883 307.073234 
L 119.556296 307.335682 
L 120.333763 307.434505 
L 121.111229 306.29237 
L 121.888696 307.102395 
L 122.666162 307.134796 
L 123.443629 307.128315 
L 124.221095 306.580739 
L 124.998562 306.815646 
L 125.776028 306.794585 
L 126.553495 306.29561 
L 127.330961 306.596939 
L 128.108428 306.157906 
L 128.885894 306.059083 
L 129.66336 305.756134 
L 130.440827 305.697812 
L 131.218293 305.346262 
L 131.99576 304.724163 
L 132.773226 305.169677 
L 133.550693 305.28146 
L 134.328159 304.709583 
L 135.105626 304.771145 
L 135.883092 304.829466 
L 136.660559 303.418404 
L 137.438025 303.463766 
L 138.215492 300.964031 
L 138.992958 302.61648 
L 139.770425 301.330162 
L 140.547891 300.26741 
L 141.325358 299.789495 
L 142.102824 298.349272 
L 142.880291 296.986811 
L 143.657757 294.833767 
L 144.435224 294.106365 
L 145.21269 291.2567 
L 145.990157 290.237689 
L 146.767623 284.723044 
L 147.54509 280.525498 
L 148.322556 275.940761 
L 149.100023 269.723014 
L 149.877489 258.246591 
L 150.654956 246.488278 
L 151.432422 226.252252 
L 152.209889 213.967424 
L 152.987355 183.79888 
L 153.764822 173.908483 
L 154.542288 163.721618 
L 155.319755 164.194672 
L 156.097221 163.1141 
L 156.874688 165.377308 
L 157.652154 161.976826 
L 158.429621 153.544473 
L 159.207087 151.605275 
L 159.984554 149.197883 
L 160.76202 152.951535 
L 161.539487 162.816011 
L 162.316953 171.847782 
L 163.09442 178.086588 
L 163.871886 182.630825 
L 164.649353 186.434699 
L 165.426819 200.197011 
L 166.204285 206.110188 
L 166.981752 212.083307 
L 167.759218 217.622253 
L 168.536685 210.994635 
L 169.314151 216.977474 
L 170.091618 264.431936 
L 170.869084 278.600881 
L 171.646551 282.189288 
L 172.424017 284.536738 
L 173.201484 286.317172 
L 173.97895 290.726944 
L 174.756417 293.485887 
L 175.533883 296.434375 
L 176.31135 298.428655 
L 177.088816 301.683332 
L 177.866283 303.748894 
L 178.643749 303.803976 
L 179.421216 304.076144 
L 180.198682 304.460095 
L 180.976149 304.798686 
L 181.753615 305.006052 
L 182.531082 305.480726 
L 183.308548 305.639491 
L 184.086015 305.733454 
L 184.863481 306.219468 
L 185.640948 306.439795 
L 186.418414 307.314621 
L 187.195881 307.60623 
" style="fill:none;stroke:#ff7f0e;stroke-linecap:square;stroke-width:1.5;"/>
   </g>
   <g id="line2d_16">
    <path clip-path="url(#pfcda1b2326)" d="M 86.864384 307.794414 
L 87.876648 307.798147 
L 88.888912 307.798147 
L 89.901175 307.799391 
L 90.913439 307.798147 
L 91.925702 307.798147 
L 92.937966 307.79317 
L 93.95023 307.781971 
L 94.962493 307.781971 
L 95.974757 307.78446 
L 96.98702 307.769529 
L 97.999284 307.765796 
L 99.011548 307.762063 
L 100.023811 307.754597 
L 101.036075 307.747132 
L 102.048339 307.747132 
L 103.060602 307.717269 
L 104.072866 307.722246 
L 105.085129 307.722246 
L 106.097393 307.712292 
L 107.109657 307.711048 
L 108.12192 307.667498 
L 109.134184 307.645101 
L 110.146447 307.59533 
L 111.158711 307.229514 
L 112.170975 307.508231 
L 113.183238 307.46717 
L 114.195502 307.485834 
L 115.207766 307.464681 
L 116.220029 307.444773 
L 117.232293 307.357674 
L 118.244556 307.146147 
L 119.25682 307.081445 
L 120.269084 306.72185 
L 121.281347 306.627285 
L 122.293611 306.88485 
L 123.305874 306.528987 
L 124.318138 306.151972 
L 125.330402 306.459308 
L 126.342665 305.65053 
L 127.354929 306.058652 
L 128.367193 305.982751 
L 129.379456 305.824728 
L 130.39172 305.406652 
L 131.403983 305.570896 
L 132.416247 304.814378 
L 133.428511 304.682484 
L 134.440774 304.299248 
L 135.453038 303.611164 
L 136.465301 302.904417 
L 137.477565 303.259035 
L 138.489829 301.161189 
L 139.502092 300.639838 
L 140.514356 299.719075 
L 141.52662 298.960068 
L 142.538883 296.757702 
L 143.551147 294.536673 
L 144.56341 291.332667 
L 145.575674 287.271356 
L 146.587938 284.730548 
L 147.600201 278.046308 
L 148.612465 276.571843 
L 149.624728 269.075091 
L 150.636992 259.789073 
L 151.649256 252.152962 
L 152.661519 238.559267 
L 153.673783 198.156441 
L 154.686046 138.948899 
L 155.69831 167.002305 
L 156.710574 184.978333 
L 157.722837 185.235898 
L 158.735101 181.788014 
L 159.747365 172.699836 
L 160.759628 162.61375 
L 161.771892 159.250477 
L 162.784155 160.249629 
L 163.796419 183.246304 
L 164.808683 197.513151 
L 165.820946 204.563209 
L 166.83321 212.872471 
L 167.845473 219.827964 
L 168.857737 225.330144 
L 169.870001 228.412211 
L 170.882264 233.304697 
L 171.894528 238.738443 
L 172.906792 259.679577 
L 173.919055 276.247087 
L 174.931319 280.371856 
L 175.943582 285.998464 
L 176.955846 295.966344 
L 177.96811 301.785814 
L 178.980373 302.699111 
L 179.992637 303.501668 
L 181.0049 304.204683 
L 182.017164 304.256943 
L 183.029428 305.160286 
L 184.041691 305.926759 
L 185.053955 306.394606 
L 186.066219 307.083934 
L 187.078482 307.541826 
" style="fill:none;stroke:#2ca02c;stroke-linecap:square;stroke-width:1.5;"/>
   </g>
   <g id="line2d_17">
    <path clip-path="url(#pfcda1b2326)" d="M 82.600364 242.255552 
L 85.778777 300.340712 
L 88.95719 301.096414 
L 92.135603 301.009629 
L 95.314016 301.176462 
L 98.492429 301.025084 
L 101.670842 301.116227 
L 104.849255 300.989815 
L 108.027669 300.568968 
L 111.206082 300.603444 
L 114.384495 300.25789 
L 117.562908 300.042316 
L 120.741321 299.893711 
L 123.919734 299.499415 
L 127.098147 299.140784 
L 130.27656 298.657326 
L 133.454973 298.387857 
L 136.633387 298.056965 
L 139.8118 297.482759 
L 142.990213 296.822561 
L 146.168626 296.088655 
L 149.347039 295.612726 
L 152.525452 295.046049 
L 155.703865 293.740711 
L 158.882278 292.686217 
L 162.060691 291.638063 
L 165.239104 290.160741 
L 168.417518 287.533025 
L 171.595931 284.910065 
L 174.774344 281.512382 
L 177.952757 274.837881 
L 181.13117 257.395332 
L 184.309583 244.001947 
L 187.487996 269.637928 
L 190.666409 280.162264 
L 193.844822 283.267098 
L 197.023236 285.621383 
L 200.201649 290.690168 
L 203.380062 294.783317 
L 206.558475 294.718724 
L 209.736888 296.375956 
L 212.915301 297.488704 
L 216.093714 298.67714 
L 219.272127 299.847743 
L 222.45054 300.473862 
L 225.628954 300.725894 
L 228.807367 301.660713 
L 231.98578 302.377579 
L 235.164193 302.426717 
L 238.342606 303.024303 
L 241.521019 303.354799 
L 244.699432 303.600887 
L 247.877845 303.522028 
L 251.056258 303.492703 
L 254.234672 303.477645 
L 257.413085 304.051851 
L 260.591498 304.024508 
L 263.769911 304.044322 
L 266.948324 304.187774 
L 270.126737 304.154487 
L 273.30515 304.392649 
L 276.483563 304.375213 
L 279.661976 304.142202 
L 282.84039 304.5044 
L 286.018803 304.563841 
L 289.197216 304.418407 
L 292.375629 304.244442 
L 295.554042 304.909791 
L 298.732455 304.909395 
L 301.910868 304.887996 
L 305.089281 304.632001 
L 308.267694 305.156672 
L 311.446108 305.197093 
L 314.624521 305.222454 
L 317.802934 305.356 
L 320.981347 305.038978 
L 324.15976 305.389683 
L 327.338173 305.340149 
L 330.516586 305.354811 
L 333.694999 305.630224 
L 336.873412 305.510152 
L 340.051826 305.734049 
L 343.230239 305.825589 
L 346.408652 305.784772 
L 349.587065 305.757033 
L 352.765478 305.980137 
L 355.943891 306.121212 
L 359.122304 306.186201 
L 362.300717 306.188975 
L 365.47913 306.211563 
L 368.657544 306.158462 
L 371.835957 306.492524 
L 375.01437 306.507978 
L 378.192783 306.700173 
L 381.371196 306.687888 
L 384.549609 306.863439 
L 387.728022 306.883253 
L 390.906435 307.107546 
L 394.084848 307.12736 
L 397.263262 307.486387 
" style="fill:none;stroke:#d62728;stroke-linecap:square;stroke-width:1.5;"/>
   </g>
   <g id="line2d_18">
    <path clip-path="url(#pfcda1b2326)" d="M 84.356916 307.706735 
L 86.19457 307.7225 
L 88.032223 307.429147 
L 89.869876 307.232436 
L 91.70753 307.1543 
L 93.545183 306.998028 
L 95.382837 306.325648 
L 97.22049 306.121398 
L 99.058144 305.954845 
L 100.895797 305.180339 
L 102.73345 304.575814 
L 104.571104 303.93976 
L 106.408757 303.487393 
L 108.246411 302.242701 
L 110.084064 300.887659 
L 111.921717 300.544272 
L 113.759371 297.350979 
L 115.597024 293.130952 
L 117.434678 296.138501 
L 119.272331 294.426364 
L 121.109985 295.152891 
L 122.947638 294.535343 
L 124.785291 294.23308 
L 126.622945 294.445555 
L 128.460598 295.355085 
L 130.298252 295.29614 
L 132.135905 294.88764 
L 133.973559 294.355082 
L 135.811212 293.710803 
L 137.648865 292.723822 
L 139.486519 291.577828 
L 141.324172 289.817027 
L 143.161826 286.418113 
L 144.999479 283.569578 
L 146.837132 281.264567 
L 148.674786 280.433858 
L 150.512439 277.892383 
L 152.350093 277.569558 
L 154.187746 276.655916 
L 156.0254 273.920472 
L 157.863053 273.640828 
L 159.700706 272.284415 
L 161.53836 270.012303 
L 163.376013 268.984884 
L 165.213667 268.880703 
L 167.05132 266.485904 
L 168.888973 265.252864 
L 170.726627 262.035581 
L 172.56428 261.79569 
L 174.401934 260.857373 
L 176.239587 259.059561 
L 178.077241 256.736729 
L 179.914894 254.477641 
L 181.752547 250.348087 
L 183.590201 264.808722 
L 185.427854 276.243303 
L 187.265508 282.24812 
L 189.103161 286.158345 
L 190.940814 289.084331 
L 192.778468 290.467475 
L 194.616121 292.96714 
L 196.453775 294.477769 
L 198.291428 295.942475 
L 200.129082 297.107661 
L 201.966735 297.76085 
L 203.804388 298.468186 
L 205.642042 298.398275 
L 207.479695 298.731381 
L 209.317349 299.15496 
L 211.155002 298.877372 
L 212.992655 299.716305 
L 214.830309 299.730699 
L 216.667962 300.132345 
L 218.505616 299.980871 
L 220.343269 299.969219 
L 222.180923 299.364008 
L 224.018576 300.564834 
L 225.856229 300.748522 
L 227.693883 300.2002 
L 229.531536 300.865726 
L 231.36919 301.16045 
L 233.206843 300.614869 
L 235.044497 301.379779 
L 236.88215 301.446948 
L 238.719803 301.004178 
L 240.557457 301.797875 
L 242.39511 301.581287 
L 244.232764 301.43324 
L 246.070417 302.048047 
L 247.90807 302.162509 
L 249.745724 301.869157 
L 251.583377 302.23996 
L 253.421031 302.364703 
L 255.258684 302.124812 
L 257.096338 301.633378 
L 258.933991 303.987052 
L 260.771644 306.309884 
L 262.609298 306.686855 
L 264.446951 307.117289 
L 266.284605 307.558003 
" style="fill:none;stroke:#9467bd;stroke-linecap:square;stroke-width:1.5;"/>
   </g>
   <g id="line2d_19">
    <path clip-path="url(#pfcda1b2326)" d="M 89.840703 307.795845 
L 91.418355 307.799039 
L 92.996007 307.799837 
L 94.573658 307.79824 
L 96.15131 307.79824 
L 97.728961 307.79824 
L 99.306613 307.792652 
L 100.884265 307.786265 
L 102.461916 307.790257 
L 104.039568 307.784668 
L 105.61722 307.780677 
L 107.194871 307.77908 
L 108.772523 307.754331 
L 110.350175 307.771096 
L 111.927826 307.765508 
L 113.505478 307.506839 
L 115.083129 307.719203 
L 116.660781 307.7208 
L 118.238433 307.704832 
L 119.816084 307.68647 
L 121.393736 307.685672 
L 122.971388 307.619408 
L 124.549039 307.466921 
L 126.126691 307.228212 
L 127.704343 307.458139 
L 129.281994 307.355151 
L 130.859646 307.109256 
L 132.437297 307.214639 
L 134.014949 307.183503 
L 135.592601 306.947189 
L 137.170252 306.82983 
L 138.747904 306.736422 
L 140.325556 306.772348 
L 141.903207 306.504099 
L 143.480859 306.218287 
L 145.058511 306.030672 
L 146.636162 305.731287 
L 148.213814 305.570019 
L 149.791465 304.914565 
L 151.369117 304.358109 
L 152.946769 303.574918 
L 154.52442 303.843167 
L 156.102072 303.087918 
L 157.679724 302.511503 
L 159.257375 301.31077 
L 160.835027 300.659308 
L 162.412679 300.573884 
L 163.99033 300.063732 
L 165.567982 298.281793 
L 167.145633 297.846687 
L 168.723285 296.800836 
L 170.300937 295.330257 
L 171.878588 293.854889 
L 173.45624 290.841081 
L 175.033892 289.70262 
L 176.611543 288.773329 
L 178.189195 286.656878 
L 179.766847 282.970053 
L 181.344498 280.06562 
L 182.92215 273.452009 
L 184.499801 268.467051 
L 186.077453 259.779301 
L 187.655105 246.490604 
L 189.232756 242.813359 
L 190.810408 235.471644 
L 192.38806 215.183727 
L 193.965711 195.410753 
L 195.543363 194.216407 
L 197.121015 198.166691 
L 198.698666 206.779395 
L 200.276318 215.081537 
L 201.853969 224.112582 
L 203.431621 236.654014 
L 205.009273 248.403474 
L 206.586924 260.800403 
L 208.164576 268.049509 
L 209.742228 271.22219 
L 211.319879 274.09868 
L 212.897531 277.322456 
L 214.475183 279.197803 
L 216.052834 281.302279 
L 217.630486 283.175231 
L 219.208137 285.662122 
L 220.785789 289.000862 
L 222.363441 293.602607 
L 223.941092 300.140374 
L 225.518744 300.708008 
L 227.096396 301.455273 
L 228.674047 301.317157 
L 230.251699 301.603768 
L 231.829351 302.054043 
L 233.407002 302.64403 
L 234.984654 302.750212 
L 236.562305 303.304274 
L 238.139957 304.607197 
L 239.717609 306.032269 
L 241.29526 306.653393 
L 242.872912 306.91286 
L 244.450564 307.201067 
L 246.028215 307.638568 
" style="fill:none;stroke:#8c564b;stroke-linecap:square;stroke-width:1.5;"/>
   </g>
   <g id="line2d_20">
    <path clip-path="url(#pfcda1b2326)" d="M 92.696321 307.797458 
L 94.678266 307.799364 
L 96.660212 307.799364 
L 98.642158 307.8 
L 100.624103 307.8 
L 102.606049 307.799364 
L 104.587995 307.796822 
L 106.56994 307.791103 
L 108.551886 307.791103 
L 110.533832 307.791738 
L 112.515777 307.787925 
L 114.497723 307.78157 
L 116.479668 307.76886 
L 118.461614 307.583929 
L 120.44356 307.758692 
L 122.425505 307.76187 
L 124.407451 307.738356 
L 126.389397 307.733908 
L 128.371342 307.719291 
L 130.353288 307.622695 
L 132.335234 307.618881 
L 134.317179 307.628414 
L 136.299125 307.242663 
L 138.28107 307.54707 
L 140.263016 307.508304 
L 142.244962 307.394549 
L 144.226907 307.205169 
L 146.208853 307.400268 
L 148.190799 307.010069 
L 150.172744 307.286513 
L 152.15469 307.261729 
L 154.136636 307.285878 
L 156.118581 307.150515 
L 158.100527 306.920463 
L 160.082472 306.835941 
L 162.064418 306.862632 
L 164.046364 306.641477 
L 166.028309 306.337706 
L 168.010255 306.438116 
L 169.992201 306.205522 
L 171.974146 306.084776 
L 173.956092 306.18455 
L 175.938038 305.984366 
L 177.919983 305.889676 
L 179.901929 305.685044 
L 181.883874 305.649456 
L 183.86582 305.447366 
L 185.847766 305.120717 
L 187.829711 304.545586 
L 189.811657 303.904999 
L 191.793603 303.399774 
L 193.775548 302.642253 
L 195.757494 301.945741 
L 197.73944 300.608007 
L 199.721385 299.678265 
L 201.703331 298.468266 
L 203.685276 297.361219 
L 205.667222 294.27013 
L 207.649168 293.953649 
L 209.631113 290.268364 
L 211.613059 288.494674 
L 213.595005 283.696622 
L 215.57695 276.83509 
L 217.558896 270.190901 
L 219.540841 252.755861 
L 221.522787 233.17282 
L 223.504733 238.784952 
L 225.486678 234.661169 
L 227.468624 233.036187 
L 229.45057 227.052285 
L 231.432515 231.167171 
L 233.414461 233.522347 
L 235.396407 239.777608 
L 237.378352 250.724157 
L 239.360298 255.500601 
L 241.342243 259.757204 
L 243.324189 262.365946 
L 245.306135 264.802466 
L 247.28808 267.878939 
L 249.270026 270.364393 
L 251.251972 272.653477 
L 253.233917 274.026165 
L 255.215863 276.950752 
L 257.197809 278.512184 
L 259.179754 286.296467 
L 261.1617 294.064862 
L 263.143645 295.45725 
L 265.125591 297.014234 
L 267.107537 298.690692 
L 269.089482 302.790326 
L 271.071428 305.413684 
L 273.053374 305.579551 
L 275.035319 305.997076 
L 277.017265 306.210606 
L 278.999211 306.29767 
L 280.981156 306.561404 
L 282.963102 306.931902 
L 284.945047 307.114927 
L 286.926993 307.325279 
L 288.908939 307.653199 
" style="fill:none;stroke:#e377c2;stroke-linecap:square;stroke-width:1.5;"/>
   </g>
   <g id="line2d_21">
    <path clip-path="url(#pfcda1b2326)" d="M 82.844305 213.63115 
L 86.510601 295.767669 
L 90.176898 297.193376 
L 93.843194 296.984845 
L 97.50949 297.79767 
L 101.175787 297.97219 
L 104.842083 297.946768 
L 108.508379 297.727587 
L 112.174675 297.758506 
L 115.840972 297.925812 
L 119.507268 297.718998 
L 123.173564 297.085504 
L 126.839861 296.877659 
L 130.506157 296.986563 
L 134.172453 296.674625 
L 137.838749 296.821662 
L 141.505046 296.147629 
L 145.171342 295.495926 
L 148.837638 295.47978 
L 152.503934 295.180553 
L 156.170231 294.619202 
L 159.836527 293.981929 
L 163.502823 293.54872 
L 167.16912 293.06982 
L 170.835416 292.30303 
L 174.501712 290.534466 
L 178.168008 289.793099 
L 181.834305 288.186001 
L 185.500601 286.870915 
L 189.166897 283.93018 
L 192.833193 280.045043 
L 196.49949 266.662636 
L 200.165786 273.719714 
L 203.832082 284.706245 
L 207.498379 289.726451 
L 211.164675 292.510874 
L 214.830971 292.288601 
L 218.497267 296.739555 
L 222.163564 299.589251 
L 225.82986 299.83832 
L 229.496156 300.301417 
L 233.162452 301.218336 
L 236.828749 302.035627 
L 240.495045 301.99715 
L 244.161341 303.098551 
L 247.827638 303.613867 
L 251.493934 303.895229 
L 255.16023 304.339088 
L 258.826526 304.530098 
L 262.492823 305.035795 
L 266.159119 305.2244 
L 269.825415 305.307881 
L 273.491711 305.335021 
L 277.158008 305.472783 
L 280.824304 305.595771 
L 284.4906 305.787469 
L 288.156897 305.842436 
L 291.823193 305.872668 
L 295.489489 306.022109 
L 299.155785 306.031385 
L 302.822082 306.157809 
L 306.488378 306.185636 
L 310.154674 306.219303 
L 313.82097 306.295914 
L 317.487267 306.26362 
L 321.153563 306.403443 
L 324.819859 306.4962 
L 328.486156 306.541547 
L 332.152452 306.565939 
L 335.818748 306.697173 
L 339.485044 306.739429 
L 343.151341 306.733932 
L 346.817637 306.742177 
L 350.483933 306.902612 
L 354.15023 306.909826 
L 357.816526 306.949677 
L 361.482822 306.973382 
L 365.149118 307.018043 
L 368.815415 307.066139 
L 372.481711 307.120762 
L 376.148007 307.140688 
L 379.814303 307.204243 
L 383.4806 307.25337 
L 387.146896 307.241346 
L 390.813192 307.341317 
L 394.479489 307.335821 
L 398.145785 307.362274 
L 401.812081 307.392849 
L 405.478377 307.457092 
L 409.144674 307.460871 
L 412.81097 307.523052 
L 416.477266 307.560155 
L 420.143562 307.586951 
L 423.809859 307.598975 
L 427.476155 307.615122 
L 431.142451 307.671807 
L 434.808748 307.706848 
L 438.475044 307.724025 
L 442.14134 307.753226 
L 445.807636 307.781741 
" style="fill:none;stroke:#7f7f7f;stroke-linecap:square;stroke-width:1.5;"/>
   </g>
   <g id="patch_3">
    <path d="M 64.44 320.4 
L 64.44 43.2 
" style="fill:none;stroke:#000000;stroke-linecap:square;stroke-linejoin:miter;stroke-width:0.8;"/>
   </g>
   <g id="patch_4">
    <path d="M 463.968 320.4 
L 463.968 43.2 
" style="fill:none;stroke:#000000;stroke-linecap:square;stroke-linejoin:miter;stroke-width:0.8;"/>
   </g>
   <g id="patch_5">
    <path d="M 64.44 320.4 
L 463.968 320.4 
" style="fill:none;stroke:#000000;stroke-linecap:square;stroke-linejoin:miter;stroke-width:0.8;"/>
   </g>
   <g id="patch_6">
    <path d="M 64.44 43.2 
L 463.968 43.2 
" style="fill:none;stroke:#000000;stroke-linecap:square;stroke-linejoin:miter;stroke-width:0.8;"/>
   </g>
   <g id="legend_1">
    <g id="patch_7">
     <path d="M 366.266437 168.625 
L 456.968 168.625 
Q 458.968 168.625 458.968 166.625 
L 458.968 50.2 
Q 458.968 48.2 456.968 48.2 
L 366.266437 48.2 
Q 364.266437 48.2 364.266437 50.2 
L 364.266437 166.625 
Q 364.266437 168.625 366.266437 168.625 
z
" style="fill:#ffffff;opacity:0.8;stroke:#cccccc;stroke-linejoin:miter;"/>
    </g>
    <g id="line2d_22">
     <path d="M 368.266437 56.298437 
L 388.266437 56.298437 
" style="fill:none;stroke:#1f77b4;stroke-linecap:square;stroke-width:1.5;"/>
    </g>
    <g id="line2d_23"/>
    <g id="text_14">
     <!-- Full -->
     <g transform="translate(396.266437 59.798437)scale(0.1 -0.1)">
      <defs>
       <path d="M 9.8125 72.90625 
L 51.703125 72.90625 
L 51.703125 64.59375 
L 19.671875 64.59375 
L 19.671875 43.109375 
L 48.578125 43.109375 
L 48.578125 34.8125 
L 19.671875 34.8125 
L 19.671875 0 
L 9.8125 0 
z
" id="DejaVuSans-70"/>
       <path d="M 8.5 21.578125 
L 8.5 54.6875 
L 17.484375 54.6875 
L 17.484375 21.921875 
Q 17.484375 14.15625 20.5 10.265625 
Q 23.53125 6.390625 29.59375 6.390625 
Q 36.859375 6.390625 41.078125 11.03125 
Q 45.3125 15.671875 45.3125 23.6875 
L 45.3125 54.6875 
L 54.296875 54.6875 
L 54.296875 0 
L 45.3125 0 
L 45.3125 8.40625 
Q 42.046875 3.421875 37.71875 1 
Q 33.40625 -1.421875 27.6875 -1.421875 
Q 18.265625 -1.421875 13.375 4.4375 
Q 8.5 10.296875 8.5 21.578125 
z
M 31.109375 56 
z
" id="DejaVuSans-117"/>
       <path d="M 9.421875 75.984375 
L 18.40625 75.984375 
L 18.40625 0 
L 9.421875 0 
z
" id="DejaVuSans-108"/>
      </defs>
      <use xlink:href="#DejaVuSans-70"/>
      <use x="52.019531" xlink:href="#DejaVuSans-117"/>
      <use x="115.398438" xlink:href="#DejaVuSans-108"/>
      <use x="143.181641" xlink:href="#DejaVuSans-108"/>
     </g>
    </g>
    <g id="line2d_24">
     <path d="M 368.266437 70.976562 
L 388.266437 70.976562 
" style="fill:none;stroke:#ff7f0e;stroke-linecap:square;stroke-width:1.5;"/>
    </g>
    <g id="line2d_25"/>
    <g id="text_15">
     <!-- Fail1 -->
     <g transform="translate(396.266437 74.476562)scale(0.1 -0.1)">
      <defs>
       <path d="M 34.28125 27.484375 
Q 23.390625 27.484375 19.1875 25 
Q 14.984375 22.515625 14.984375 16.5 
Q 14.984375 11.71875 18.140625 8.90625 
Q 21.296875 6.109375 26.703125 6.109375 
Q 34.1875 6.109375 38.703125 11.40625 
Q 43.21875 16.703125 43.21875 25.484375 
L 43.21875 27.484375 
z
M 52.203125 31.203125 
L 52.203125 0 
L 43.21875 0 
L 43.21875 8.296875 
Q 40.140625 3.328125 35.546875 0.953125 
Q 30.953125 -1.421875 24.3125 -1.421875 
Q 15.921875 -1.421875 10.953125 3.296875 
Q 6 8.015625 6 15.921875 
Q 6 25.140625 12.171875 29.828125 
Q 18.359375 34.515625 30.609375 34.515625 
L 43.21875 34.515625 
L 43.21875 35.40625 
Q 43.21875 41.609375 39.140625 45 
Q 35.0625 48.390625 27.6875 48.390625 
Q 23 48.390625 18.546875 47.265625 
Q 14.109375 46.140625 10.015625 43.890625 
L 10.015625 52.203125 
Q 14.9375 54.109375 19.578125 55.046875 
Q 24.21875 56 28.609375 56 
Q 40.484375 56 46.34375 49.84375 
Q 52.203125 43.703125 52.203125 31.203125 
z
" id="DejaVuSans-97"/>
       <path d="M 9.421875 54.6875 
L 18.40625 54.6875 
L 18.40625 0 
L 9.421875 0 
z
M 9.421875 75.984375 
L 18.40625 75.984375 
L 18.40625 64.59375 
L 9.421875 64.59375 
z
" id="DejaVuSans-105"/>
      </defs>
      <use xlink:href="#DejaVuSans-70"/>
      <use x="48.394531" xlink:href="#DejaVuSans-97"/>
      <use x="109.673828" xlink:href="#DejaVuSans-105"/>
      <use x="137.457031" xlink:href="#DejaVuSans-108"/>
      <use x="165.240234" xlink:href="#DejaVuSans-49"/>
     </g>
    </g>
    <g id="line2d_26">
     <path d="M 368.266437 85.654687 
L 388.266437 85.654687 
" style="fill:none;stroke:#2ca02c;stroke-linecap:square;stroke-width:1.5;"/>
    </g>
    <g id="line2d_27"/>
    <g id="text_16">
     <!-- 5 side -->
     <g transform="translate(396.266437 89.154687)scale(0.1 -0.1)">
      <defs>
       <path id="DejaVuSans-32"/>
       <path d="M 44.28125 53.078125 
L 44.28125 44.578125 
Q 40.484375 46.53125 36.375 47.5 
Q 32.28125 48.484375 27.875 48.484375 
Q 21.1875 48.484375 17.84375 46.4375 
Q 14.5 44.390625 14.5 40.28125 
Q 14.5 37.15625 16.890625 35.375 
Q 19.28125 33.59375 26.515625 31.984375 
L 29.59375 31.296875 
Q 39.15625 29.25 43.1875 25.515625 
Q 47.21875 21.78125 47.21875 15.09375 
Q 47.21875 7.46875 41.1875 3.015625 
Q 35.15625 -1.421875 24.609375 -1.421875 
Q 20.21875 -1.421875 15.453125 -0.5625 
Q 10.6875 0.296875 5.421875 2 
L 5.421875 11.28125 
Q 10.40625 8.6875 15.234375 7.390625 
Q 20.0625 6.109375 24.8125 6.109375 
Q 31.15625 6.109375 34.5625 8.28125 
Q 37.984375 10.453125 37.984375 14.40625 
Q 37.984375 18.0625 35.515625 20.015625 
Q 33.0625 21.96875 24.703125 23.78125 
L 21.578125 24.515625 
Q 13.234375 26.265625 9.515625 29.90625 
Q 5.8125 33.546875 5.8125 39.890625 
Q 5.8125 47.609375 11.28125 51.796875 
Q 16.75 56 26.8125 56 
Q 31.78125 56 36.171875 55.265625 
Q 40.578125 54.546875 44.28125 53.078125 
z
" id="DejaVuSans-115"/>
       <path d="M 45.40625 46.390625 
L 45.40625 75.984375 
L 54.390625 75.984375 
L 54.390625 0 
L 45.40625 0 
L 45.40625 8.203125 
Q 42.578125 3.328125 38.25 0.953125 
Q 33.9375 -1.421875 27.875 -1.421875 
Q 17.96875 -1.421875 11.734375 6.484375 
Q 5.515625 14.40625 5.515625 27.296875 
Q 5.515625 40.1875 11.734375 48.09375 
Q 17.96875 56 27.875 56 
Q 33.9375 56 38.25 53.625 
Q 42.578125 51.265625 45.40625 46.390625 
z
M 14.796875 27.296875 
Q 14.796875 17.390625 18.875 11.75 
Q 22.953125 6.109375 30.078125 6.109375 
Q 37.203125 6.109375 41.296875 11.75 
Q 45.40625 17.390625 45.40625 27.296875 
Q 45.40625 37.203125 41.296875 42.84375 
Q 37.203125 48.484375 30.078125 48.484375 
Q 22.953125 48.484375 18.875 42.84375 
Q 14.796875 37.203125 14.796875 27.296875 
z
" id="DejaVuSans-100"/>
       <path d="M 56.203125 29.59375 
L 56.203125 25.203125 
L 14.890625 25.203125 
Q 15.484375 15.921875 20.484375 11.0625 
Q 25.484375 6.203125 34.421875 6.203125 
Q 39.59375 6.203125 44.453125 7.46875 
Q 49.3125 8.734375 54.109375 11.28125 
L 54.109375 2.78125 
Q 49.265625 0.734375 44.1875 -0.34375 
Q 39.109375 -1.421875 33.890625 -1.421875 
Q 20.796875 -1.421875 13.15625 6.1875 
Q 5.515625 13.8125 5.515625 26.8125 
Q 5.515625 40.234375 12.765625 48.109375 
Q 20.015625 56 32.328125 56 
Q 43.359375 56 49.78125 48.890625 
Q 56.203125 41.796875 56.203125 29.59375 
z
M 47.21875 32.234375 
Q 47.125 39.59375 43.09375 43.984375 
Q 39.0625 48.390625 32.421875 48.390625 
Q 24.90625 48.390625 20.390625 44.140625 
Q 15.875 39.890625 15.1875 32.171875 
z
" id="DejaVuSans-101"/>
      </defs>
      <use xlink:href="#DejaVuSans-53"/>
      <use x="63.623047" xlink:href="#DejaVuSans-32"/>
      <use x="95.410156" xlink:href="#DejaVuSans-115"/>
      <use x="147.509766" xlink:href="#DejaVuSans-105"/>
      <use x="175.292969" xlink:href="#DejaVuSans-100"/>
      <use x="238.769531" xlink:href="#DejaVuSans-101"/>
     </g>
    </g>
    <g id="line2d_28">
     <path d="M 368.266437 100.332812 
L 388.266437 100.332812 
" style="fill:none;stroke:#d62728;stroke-linecap:square;stroke-width:1.5;"/>
    </g>
    <g id="line2d_29"/>
    <g id="text_17">
     <!-- Flower -->
     <g transform="translate(396.266437 103.832812)scale(0.1 -0.1)">
      <defs>
       <path d="M 30.609375 48.390625 
Q 23.390625 48.390625 19.1875 42.75 
Q 14.984375 37.109375 14.984375 27.296875 
Q 14.984375 17.484375 19.15625 11.84375 
Q 23.34375 6.203125 30.609375 6.203125 
Q 37.796875 6.203125 41.984375 11.859375 
Q 46.1875 17.53125 46.1875 27.296875 
Q 46.1875 37.015625 41.984375 42.703125 
Q 37.796875 48.390625 30.609375 48.390625 
z
M 30.609375 56 
Q 42.328125 56 49.015625 48.375 
Q 55.71875 40.765625 55.71875 27.296875 
Q 55.71875 13.875 49.015625 6.21875 
Q 42.328125 -1.421875 30.609375 -1.421875 
Q 18.84375 -1.421875 12.171875 6.21875 
Q 5.515625 13.875 5.515625 27.296875 
Q 5.515625 40.765625 12.171875 48.375 
Q 18.84375 56 30.609375 56 
z
" id="DejaVuSans-111"/>
       <path d="M 4.203125 54.6875 
L 13.1875 54.6875 
L 24.421875 12.015625 
L 35.59375 54.6875 
L 46.1875 54.6875 
L 57.421875 12.015625 
L 68.609375 54.6875 
L 77.59375 54.6875 
L 63.28125 0 
L 52.6875 0 
L 40.921875 44.828125 
L 29.109375 0 
L 18.5 0 
z
" id="DejaVuSans-119"/>
       <path d="M 41.109375 46.296875 
Q 39.59375 47.171875 37.8125 47.578125 
Q 36.03125 48 33.890625 48 
Q 26.265625 48 22.1875 43.046875 
Q 18.109375 38.09375 18.109375 28.8125 
L 18.109375 0 
L 9.078125 0 
L 9.078125 54.6875 
L 18.109375 54.6875 
L 18.109375 46.1875 
Q 20.953125 51.171875 25.484375 53.578125 
Q 30.03125 56 36.53125 56 
Q 37.453125 56 38.578125 55.875 
Q 39.703125 55.765625 41.0625 55.515625 
z
" id="DejaVuSans-114"/>
      </defs>
      <use xlink:href="#DejaVuSans-70"/>
      <use x="57.519531" xlink:href="#DejaVuSans-108"/>
      <use x="85.302734" xlink:href="#DejaVuSans-111"/>
      <use x="146.484375" xlink:href="#DejaVuSans-119"/>
      <use x="228.271484" xlink:href="#DejaVuSans-101"/>
      <use x="289.794922" xlink:href="#DejaVuSans-114"/>
     </g>
    </g>
    <g id="line2d_30">
     <path d="M 368.266437 115.010937 
L 388.266437 115.010937 
" style="fill:none;stroke:#9467bd;stroke-linecap:square;stroke-width:1.5;"/>
    </g>
    <g id="line2d_31"/>
    <g id="text_18">
     <!-- T-shirt -->
     <g transform="translate(396.266437 118.510937)scale(0.1 -0.1)">
      <defs>
       <path d="M -0.296875 72.90625 
L 61.375 72.90625 
L 61.375 64.59375 
L 35.5 64.59375 
L 35.5 0 
L 25.59375 0 
L 25.59375 64.59375 
L -0.296875 64.59375 
z
" id="DejaVuSans-84"/>
       <path d="M 4.890625 31.390625 
L 31.203125 31.390625 
L 31.203125 23.390625 
L 4.890625 23.390625 
z
" id="DejaVuSans-45"/>
       <path d="M 54.890625 33.015625 
L 54.890625 0 
L 45.90625 0 
L 45.90625 32.71875 
Q 45.90625 40.484375 42.875 44.328125 
Q 39.84375 48.1875 33.796875 48.1875 
Q 26.515625 48.1875 22.3125 43.546875 
Q 18.109375 38.921875 18.109375 30.90625 
L 18.109375 0 
L 9.078125 0 
L 9.078125 75.984375 
L 18.109375 75.984375 
L 18.109375 46.1875 
Q 21.34375 51.125 25.703125 53.5625 
Q 30.078125 56 35.796875 56 
Q 45.21875 56 50.046875 50.171875 
Q 54.890625 44.34375 54.890625 33.015625 
z
" id="DejaVuSans-104"/>
       <path d="M 18.3125 70.21875 
L 18.3125 54.6875 
L 36.8125 54.6875 
L 36.8125 47.703125 
L 18.3125 47.703125 
L 18.3125 18.015625 
Q 18.3125 11.328125 20.140625 9.421875 
Q 21.96875 7.515625 27.59375 7.515625 
L 36.8125 7.515625 
L 36.8125 0 
L 27.59375 0 
Q 17.1875 0 13.234375 3.875 
Q 9.28125 7.765625 9.28125 18.015625 
L 9.28125 47.703125 
L 2.6875 47.703125 
L 2.6875 54.6875 
L 9.28125 54.6875 
L 9.28125 70.21875 
z
" id="DejaVuSans-116"/>
      </defs>
      <use xlink:href="#DejaVuSans-84"/>
      <use x="51.958984" xlink:href="#DejaVuSans-45"/>
      <use x="88.042969" xlink:href="#DejaVuSans-115"/>
      <use x="140.142578" xlink:href="#DejaVuSans-104"/>
      <use x="203.521484" xlink:href="#DejaVuSans-105"/>
      <use x="231.304688" xlink:href="#DejaVuSans-114"/>
      <use x="272.417969" xlink:href="#DejaVuSans-116"/>
     </g>
    </g>
    <g id="line2d_32">
     <path d="M 368.266437 129.689062 
L 388.266437 129.689062 
" style="fill:none;stroke:#8c564b;stroke-linecap:square;stroke-width:1.5;"/>
    </g>
    <g id="line2d_33"/>
    <g id="text_19">
     <!-- Legs -->
     <g transform="translate(396.266437 133.189062)scale(0.1 -0.1)">
      <defs>
       <path d="M 9.8125 72.90625 
L 19.671875 72.90625 
L 19.671875 8.296875 
L 55.171875 8.296875 
L 55.171875 0 
L 9.8125 0 
z
" id="DejaVuSans-76"/>
       <path d="M 45.40625 27.984375 
Q 45.40625 37.75 41.375 43.109375 
Q 37.359375 48.484375 30.078125 48.484375 
Q 22.859375 48.484375 18.828125 43.109375 
Q 14.796875 37.75 14.796875 27.984375 
Q 14.796875 18.265625 18.828125 12.890625 
Q 22.859375 7.515625 30.078125 7.515625 
Q 37.359375 7.515625 41.375 12.890625 
Q 45.40625 18.265625 45.40625 27.984375 
z
M 54.390625 6.78125 
Q 54.390625 -7.171875 48.1875 -13.984375 
Q 42 -20.796875 29.203125 -20.796875 
Q 24.46875 -20.796875 20.265625 -20.09375 
Q 16.0625 -19.390625 12.109375 -17.921875 
L 12.109375 -9.1875 
Q 16.0625 -11.328125 19.921875 -12.34375 
Q 23.78125 -13.375 27.78125 -13.375 
Q 36.625 -13.375 41.015625 -8.765625 
Q 45.40625 -4.15625 45.40625 5.171875 
L 45.40625 9.625 
Q 42.625 4.78125 38.28125 2.390625 
Q 33.9375 0 27.875 0 
Q 17.828125 0 11.671875 7.65625 
Q 5.515625 15.328125 5.515625 27.984375 
Q 5.515625 40.671875 11.671875 48.328125 
Q 17.828125 56 27.875 56 
Q 33.9375 56 38.28125 53.609375 
Q 42.625 51.21875 45.40625 46.390625 
L 45.40625 54.6875 
L 54.390625 54.6875 
z
" id="DejaVuSans-103"/>
      </defs>
      <use xlink:href="#DejaVuSans-76"/>
      <use x="53.962891" xlink:href="#DejaVuSans-101"/>
      <use x="115.486328" xlink:href="#DejaVuSans-103"/>
      <use x="178.962891" xlink:href="#DejaVuSans-115"/>
     </g>
    </g>
    <g id="line2d_34">
     <path d="M 368.266437 144.367187 
L 388.266437 144.367187 
" style="fill:none;stroke:#e377c2;stroke-linecap:square;stroke-width:1.5;"/>
    </g>
    <g id="line2d_35"/>
    <g id="text_20">
     <!-- Shuttlecock -->
     <g transform="translate(396.266437 147.867187)scale(0.1 -0.1)">
      <defs>
       <path d="M 53.515625 70.515625 
L 53.515625 60.890625 
Q 47.90625 63.578125 42.921875 64.890625 
Q 37.9375 66.21875 33.296875 66.21875 
Q 25.25 66.21875 20.875 63.09375 
Q 16.5 59.96875 16.5 54.203125 
Q 16.5 49.359375 19.40625 46.890625 
Q 22.3125 44.4375 30.421875 42.921875 
L 36.375 41.703125 
Q 47.40625 39.59375 52.65625 34.296875 
Q 57.90625 29 57.90625 20.125 
Q 57.90625 9.515625 50.796875 4.046875 
Q 43.703125 -1.421875 29.984375 -1.421875 
Q 24.8125 -1.421875 18.96875 -0.25 
Q 13.140625 0.921875 6.890625 3.21875 
L 6.890625 13.375 
Q 12.890625 10.015625 18.65625 8.296875 
Q 24.421875 6.59375 29.984375 6.59375 
Q 38.421875 6.59375 43.015625 9.90625 
Q 47.609375 13.234375 47.609375 19.390625 
Q 47.609375 24.75 44.3125 27.78125 
Q 41.015625 30.8125 33.5 32.328125 
L 27.484375 33.5 
Q 16.453125 35.6875 11.515625 40.375 
Q 6.59375 45.0625 6.59375 53.421875 
Q 6.59375 63.09375 13.40625 68.65625 
Q 20.21875 74.21875 32.171875 74.21875 
Q 37.3125 74.21875 42.625 73.28125 
Q 47.953125 72.359375 53.515625 70.515625 
z
" id="DejaVuSans-83"/>
       <path d="M 48.78125 52.59375 
L 48.78125 44.1875 
Q 44.96875 46.296875 41.140625 47.34375 
Q 37.3125 48.390625 33.40625 48.390625 
Q 24.65625 48.390625 19.8125 42.84375 
Q 14.984375 37.3125 14.984375 27.296875 
Q 14.984375 17.28125 19.8125 11.734375 
Q 24.65625 6.203125 33.40625 6.203125 
Q 37.3125 6.203125 41.140625 7.25 
Q 44.96875 8.296875 48.78125 10.40625 
L 48.78125 2.09375 
Q 45.015625 0.34375 40.984375 -0.53125 
Q 36.96875 -1.421875 32.421875 -1.421875 
Q 20.0625 -1.421875 12.78125 6.34375 
Q 5.515625 14.109375 5.515625 27.296875 
Q 5.515625 40.671875 12.859375 48.328125 
Q 20.21875 56 33.015625 56 
Q 37.15625 56 41.109375 55.140625 
Q 45.0625 54.296875 48.78125 52.59375 
z
" id="DejaVuSans-99"/>
       <path d="M 9.078125 75.984375 
L 18.109375 75.984375 
L 18.109375 31.109375 
L 44.921875 54.6875 
L 56.390625 54.6875 
L 27.390625 29.109375 
L 57.625 0 
L 45.90625 0 
L 18.109375 26.703125 
L 18.109375 0 
L 9.078125 0 
z
" id="DejaVuSans-107"/>
      </defs>
      <use xlink:href="#DejaVuSans-83"/>
      <use x="63.476562" xlink:href="#DejaVuSans-104"/>
      <use x="126.855469" xlink:href="#DejaVuSans-117"/>
      <use x="190.234375" xlink:href="#DejaVuSans-116"/>
      <use x="229.443359" xlink:href="#DejaVuSans-116"/>
      <use x="268.652344" xlink:href="#DejaVuSans-108"/>
      <use x="296.435547" xlink:href="#DejaVuSans-101"/>
      <use x="357.958984" xlink:href="#DejaVuSans-99"/>
      <use x="412.939453" xlink:href="#DejaVuSans-111"/>
      <use x="474.121094" xlink:href="#DejaVuSans-99"/>
      <use x="529.101562" xlink:href="#DejaVuSans-107"/>
     </g>
    </g>
    <g id="line2d_36">
     <path d="M 368.266437 159.045312 
L 388.266437 159.045312 
" style="fill:none;stroke:#7f7f7f;stroke-linecap:square;stroke-width:1.5;"/>
    </g>
    <g id="line2d_37"/>
    <g id="text_21">
     <!-- Foldscreen -->
     <g transform="translate(396.266437 162.545312)scale(0.1 -0.1)">
      <defs>
       <path d="M 54.890625 33.015625 
L 54.890625 0 
L 45.90625 0 
L 45.90625 32.71875 
Q 45.90625 40.484375 42.875 44.328125 
Q 39.84375 48.1875 33.796875 48.1875 
Q 26.515625 48.1875 22.3125 43.546875 
Q 18.109375 38.921875 18.109375 30.90625 
L 18.109375 0 
L 9.078125 0 
L 9.078125 54.6875 
L 18.109375 54.6875 
L 18.109375 46.1875 
Q 21.34375 51.125 25.703125 53.5625 
Q 30.078125 56 35.796875 56 
Q 45.21875 56 50.046875 50.171875 
Q 54.890625 44.34375 54.890625 33.015625 
z
" id="DejaVuSans-110"/>
      </defs>
      <use xlink:href="#DejaVuSans-70"/>
      <use x="53.894531" xlink:href="#DejaVuSans-111"/>
      <use x="115.076172" xlink:href="#DejaVuSans-108"/>
      <use x="142.859375" xlink:href="#DejaVuSans-100"/>
      <use x="206.335938" xlink:href="#DejaVuSans-115"/>
      <use x="258.435547" xlink:href="#DejaVuSans-99"/>
      <use x="313.416016" xlink:href="#DejaVuSans-114"/>
      <use x="352.279297" xlink:href="#DejaVuSans-101"/>
      <use x="413.802734" xlink:href="#DejaVuSans-101"/>
      <use x="475.326172" xlink:href="#DejaVuSans-110"/>
     </g>
    </g>
   </g>
  </g>
 </g>
 <defs>
  <clipPath id="pfcda1b2326">
   <rect height="277.2" width="399.528" x="64.44" y="43.2"/>
  </clipPath>
 </defs>
</svg>
